<?xml version="1.0" encoding="utf-8"?>
<!-- Generator: Adobe Illustrator 25.2.0, SVG Export Plug-In . SVG Version: 6.00 Build 0)  -->
<svg version="1.1" id="Capa_1" xmlns="http://www.w3.org/2000/svg" xmlns:xlink="http://www.w3.org/1999/xlink" x="0px" y="0px"
	 viewBox="0 0 512 512" style="enable-background:new 0 0 512 512;" xml:space="preserve">
<g>
	<path d="M256,46.1c68.4,0,76.5,0.3,103.4,1.5c27.9,1.3,56.6,7.6,77,28c20.5,20.5,26.7,49,28,77c1.2,27,1.5,35.1,1.5,103.4
		s-0.3,76.5-1.5,103.4c-1.3,27.8-7.8,56.8-28,77c-20.5,20.5-49,26.7-77,28c-27,1.2-35.1,1.5-103.4,1.5s-76.5-0.3-103.4-1.5
		c-27.5-1.3-56.9-7.9-77-28c-20.4-20.4-26.7-49.2-28-77c-1.2-27-1.5-35.1-1.5-103.4s0.3-76.5,1.5-103.4c1.3-27.6,7.8-56.8,28-77
		c20.5-20.5,49-26.7,77-28C179.5,46.4,187.6,46.1,256,46.1 M256,0c-69.5,0-78.3,0.3-105.6,1.5C110.9,3.3,71.6,14.4,43,43
		C14.3,71.7,3.3,110.9,1.5,150.4C0.3,177.7,0,186.5,0,256s0.3,78.3,1.5,105.6C3.3,401.1,14.4,440.5,43,469
		c28.7,28.7,68,39.6,107.5,41.4c27.3,1.2,36,1.5,105.6,1.5s78.3-0.3,105.6-1.5c39.6-1.8,78.9-12.8,107.5-41.4
		c28.7-28.7,39.6-67.9,41.4-107.5c1.2-27.3,1.5-36,1.5-105.6s-0.3-78.3-1.5-105.6c-1.9-39.4-13-78.7-41.6-107.3
		C440.4,14.3,401,3.3,361.6,1.5C334.3,0.3,325.5,0,256,0z"/>
	<path d="M256,124.5c-72.6,0-131.5,58.9-131.5,131.5S183.4,387.5,256,387.5S387.5,328.6,387.5,256S328.6,124.5,256,124.5z
		 M256,341.3c-47.1,0-85.3-38.2-85.3-85.3s38.2-85.3,85.3-85.3s85.3,38.2,85.3,85.3S303.1,341.3,256,341.3z"/>
	<circle cx="392.7" cy="119.3" r="30.7"/>
</g>
</svg>
