<svg id="Calque_2" data-name="Calque 2" xmlns="http://www.w3.org/2000/svg" viewBox="0 0 1024.22 1018.74"><defs><style>.cls-1{fill:#8f00ff;}</style></defs><path class="cls-1" d="M850.11,371.21a20.5,20.5,0,0,0,.1-41C823,331.23,822.93,370.07,850.11,371.21Z" transform="translate(-458.1 -43.45)"/><path class="cls-1" d="M670.84,484.11c-29.42,1.1-29.51,43.12-.11,44.35a22.18,22.18,0,0,0,.11-44.35Z" transform="translate(-458.1 -43.45)"/><path class="cls-1" d="M879.38,257.28a29,29,0,0,0-28.93-29.07c-14.82,0-26.46,8.59-28.23,22.94,0,3-72.17,70.83-72.17,70.83l45,.1,42.09-38.9s8.08,3,13.17,3A29,29,0,0,0,879.38,257.28Z" transform="translate(-458.1 -43.45)"/><path class="cls-1" d="M522.93,485.66a25.77,25.77,0,0,0-25.71-25.83c-12.33-.28-18,4.9-22.47,13.05l-10.58,0-3.61,28.55,16.28,0C490.88,520.42,522.8,510.57,522.93,485.66Z" transform="translate(-458.1 -43.45)"/><path class="cls-1" d="M949.22,672.45a33.43,33.43,0,0,0-2-5c-5-11-14.34-39.75-16.9-44-3-5-8-15-11-20s-16.93-28-24.91-38.06A141.21,141.21,0,0,1,881.16,545s3.38-7.26,3.39-12.23a24,24,0,0,0-48-.12c0,8.7,10.68,20,10.68,20l-80.62-.19.26-106.89c20.47-2.51,38.72-14.94,40-43-2.14-57.36-84.09-57.57-86.5-.21,0,5.23,2.16,11.56,4.56,16.94a101.7,101.7,0,0,0,6.1,11.59l-2,121.5-112-.27.36-150,45.48.11a30,30,0,0,0,16-9.46c7-8,8-11,9-14s.48-57,.48-57L756.22,252c35.15-1.05,36.61-52.12.12-54-16.86-.35-30,16.15-26.55,32.24-13.09,12.35-41.19,38.26-54.64,50.57-1.91,1.21-15,13.08-17,17a36,36,0,0,0-6,17l-.13,51-158,.63-13.08,33-1,2,99.95.24-1.31,149L466,550.3l-7.9,0q-.06,17.13,1,34l409.31,1,48.86,61.11a14.26,14.26,0,0,1,3,5c1,3,1,10,1,13L921.18,686s-7.31,9.6-7.32,16.65a22.71,22.71,0,1,0,45.42.11c0-7.82-9.26-18.35-9.26-18.35S950.21,675.45,949.22,672.45Z" transform="translate(-458.1 -43.45)"/><path class="cls-1" d="M579.94,726.57A27,27,0,0,0,553,699.51c-8.21.06-17.83,3.91-21.21,10.23l-48.59.62q5.35,16.41,11.77,32.3l35.83-.7C545.07,763,579.44,753.74,579.94,726.57Z" transform="translate(-458.1 -43.45)"/><path class="cls-1" d="M679.74,870.81c-7,0-15.88,4.23-20,10-2.56,3.54-4,13-4,13l-35,31.61q12.8,11.92,26.4,23l31.66-31.53.89,0C708.77,915.77,709.83,871.61,679.74,870.81Z" transform="translate(-458.1 -43.45)"/><path class="cls-1" d="M879.64,851l.21-138.84a320.27,320.27,0,0,0,.07-32.28c-.86-17.3.69-9.78-2.68-19.58a35.3,35.3,0,0,0-12-16s-16-13-32-14.08-369.24.08-369.24.08q2.67,17.32,6.5,34.3l147.31.35-.21,91.6s-13.1,6.24-20.7,15.11c-4.23,4.94-6.36,15.71-6.36,15.71l-75.16-.18q9.69,18.63,20.86,36.34l62.35.15c24,31.86,77,15.26,77.35-26.49.44-18.9-7.36-28-19-35.95l.23-95.39,172.82.41a24.19,24.19,0,0,1,5.2,4,21.4,21.4,0,0,1,4,5c2,3,1,2,2,4s-.06,25.63-.06,25.63l-.36,148.37L764.35,853l.5-72.08c38.69-18.63,29.3-77.27-16.85-79-44.07.47-57,59.15-18.15,78.45,0,0-2,55.5.92,78.51a34.84,34.84,0,0,0,5,14c1.16,1.86,7.32,10.7,17,12,.17,0,.13,1,8,1l81,.19-1.49,159.75q19.21,5,39,8.46l.4-169.1,41.12.08-.42,174.56q6.06.57,12.14,1l25.25-162.46-.55-47.31Z" transform="translate(-458.1 -43.45)"/><path class="cls-1" d="M740,960c0,15,6,24.2,17.55,28.81l-.07,27.9q16.27,7.4,33.12,13.67l.1-41.1a21.85,21.85,0,0,0,10.82-7.13c4.58-5.63,7.61-15.47,7.62-22C807.41,916.36,741.86,916.19,740,960Z" transform="translate(-458.1 -43.45)"/><path class="cls-1" d="M973.72,43.51C732.13,39.84,568.16,216.38,511,323.41c19,0,57-.87,72-.83,54.76-90.32,195.27-219.09,386.52-216.08,247,.59,446.73,200.19,446.14,445.83-.5,187.16-114.82,342.87-279.44,411.36-.69-68.66,5.65-188.29-11.13-259.82-2-8-12.9-43-13.88-49s-19.88-52.05-19.88-52.05-12.77-33.78-20.89-47c-8-13-6.93-28-5.92-32s9-12,9-12c4.17-3.9,31.46-28.15,44.09-36.9,13-10,32-16.92,32-16.92,11-6,182-12.57,186-14.56s14-8,14-12.95l0-5.39-249-.22s-11,0-10-2,2-2,8-6,18-7,19-6,232,1.26,232,1.26v-.71s-1-7-4-9-9-4-16-7-21-5.05-29-7.07c0,0-9.67-1.85-42-8.1-9.79-1.9-15.79-3.08-24-5.06-6.38-1.54-9.2-2.38-16-4-9.65-2.36-17.61-4-23-5,0,0-12-4-16-9s-4-6-4-6-13-14-17-19-16-14-16-14-9.18-8.42-31-16.07c-5.18-1.82-9.72-3.59-9.72-3.59-9.37-2.72-7.78-2.52-20.05-4.48a94.49,94.49,0,0,0-15.65-1.09c-5,.09-22.38,1.42-27.06,1.48a160.62,160.62,0,0,0-27.51,3.44c-10.61,2.53-19,7.5-36,16.91A91.77,91.77,0,0,0,951,334.45c-8,9-14,16-21.07,29.95s-12.05,19-18.11,45-3.1,44-3.1,44-2,11,.91,36,4.92,34,14.87,55,12.92,32,20.9,43.05,19.9,39,22.83,44.46c3.77,7.07,8,16.75,10,20.62,1,2,6,16,11.92,34s1,4,5.85,23.54.05,19.47,5,40.48,1.88,50,1.88,50,2-2-2.09,39-1,12-2.06,24-10.12,52-19.22,90.95,0,0-4,21-8.21,61.48-8.21,61.48l-.06,25.19c35.95.42,107.56-11.09,107.7-11.12.34-85.44-.33-170.87,0-256.31-.64-8.33-1-16-1.94-24-1.72-8.14-2.23-22-3.93-30l-4.93-30-4.94-23s-9.93-31-10.92-32-8-20-8-20l-9.94-24c-7.16-13.79-15.54-31-20.89-45-1.35-2.55-1.74-5.56-3-9a70.51,70.51,0,0,1-3-11,113.36,113.36,0,0,1,2.07-29,109.3,109.3,0,0,1,13.08-30,133,133,0,0,1,12-11c4.34-3.38,7.69-5.31,14-9,7.52-4.36,9.72-4.85,15.74-5.47a29.68,29.68,0,0,1,8.27.52,14.17,14.17,0,0,1,6,3c4.65,4.08,5.94,11.17,4,14-.54.78,0,1.52-5,5-.44.31-2.69,1.77-3,2-3.28,2.29-5.65,3.22-8,5-12,9-8,5-17,11s-15,22-14.07,31,8.41,33.88,11.9,40c4,7,15.91,40,21.88,50.06,6.17,10.34,10.93,31,13.91,37,3.21,6.46,8.92,35,11.91,41s6.9,40,8.88,49a189.37,189.37,0,0,1,3,21c2.08,65.27,2.18,133.29-.22,203.84q-1.12,33.44-2.94,66c227.06-68.2,382.06-270.75,382.5-489.89C1482.92,249.18,1188.67,44,973.72,43.51Zm227.4,342.26c.73-2.94,6.55-4,13-2.41s11.11,5.28,10.38,8.21-6.55,4-13,2.41S1200.39,388.7,1201.12,385.77Zm-122.26,14a30.25,30.25,0,1,1,30.33-30.18A30.25,30.25,0,0,1,1078.86,399.76Z" transform="translate(-458.1 -43.45)"/></svg>