<svg xmlns="http://www.w3.org/2000/svg" viewBox="0 0 1026.47 1027.36"><g id="Calque_2" data-name="Calque 2"><g id="Calque_2-2" data-name="Calque 2"><path d="M986.06,313.93A514.32,514.32,0,0,0,52.88,283.51H128.4C206.85,153.28,349.65,66,512.44,66c247,0,448,201,448,448,0,198.39-129.62,367.07-308.62,425.82v69.09a514.51,514.51,0,0,0,334.21-695Z"/><path d="M896.46,373.36c1.73-21.39-104-35-140.1-43.57-32.68-4.43-37.79-18.72-37.79-18.72-35.17-43.85-99.27-71-167.49-49.7-45.28,18.28-78.65,50.66-91.57,114-7.29,27.93-8.75,89,11.91,129,17.09,50.47,75.9,138.84,78,229.79,1.36,59.91,1.7,105.19-18.72,164.42-16.18,46.93-18.4,106.13-18.63,128.71h2.06a516.64,516.64,0,0,0,110.74-11.95c-1.31-95.35,6.83-289.51-22.34-376.65-21-75-103.15-159.77-1.45-212,0,0,9.64-4.6,15.58-2.05,7.76,3.61,8.72,8,6.27,16-.74,2.39-3.21,4-4.63,5.55-6.76,7.37-27.94,20.06-27.94,20.06-10.22,12.26-15.58,28.94-7.41,50.11,24.77,57.76,59.62,156.62,66.38,222.4,4.07,39.64,2.68,213,2.56,214.38-3.77,2.06,30.5-16.68,31.4-17.1-2-86.88,9.31-229.21-23.74-316.09-3.06-14.29-28.09-75.57-28.09-75.57-6.53-17.34-27.75-43.17-16.85-65.36,6.13-11.75,66.64-58,88.85-61.28,33.2-6.13,146.27-10.24,178.22-12.77,0,0,15.32-8.68,14.81-18.89H643.68C628.26,357.37,887.6,378.93,896.46,373.36ZM748.14,346.41c.85-2.84,6.44-3.67,12.5-1.86s10.28,5.58,9.43,8.42-6.45,3.67-12.51,1.86S747.29,349.25,748.14,346.41ZM627.5,360a29.79,29.79,0,1,1,27.31-27.23A29.79,29.79,0,0,1,627.5,360Z"/><g id="circuit"><circle cx="302.57" cy="188" r="26.81"/><circle cx="308.7" cy="360.09" r="44.43"/><circle cx="399.08" cy="315.66" r="22.98"/><circle cx="295.93" cy="704.26" r="44.43"/><circle cx="178.49" cy="757.36" r="44.43"/><circle cx="394.08" cy="206.81" r="26.81"/><circle cx="44.7" cy="444.85" r="26.81"/><circle cx="321.66" cy="922.24" r="34.91"/><circle cx="98.32" cy="689.64" r="26.81"/><circle cx="415.07" cy="530.6" r="35.08"/><circle cx="216.27" cy="467.83" r="22.98"/><circle cx="228.72" cy="849.09" r="29.17"/><circle cx="481.92" cy="829.88" r="22.98"/><path d="M309,211l-3.8,3.67L253,265.06l-14,13.49v86.54H21.68q6.59-21.93,15-43H195.38V260.5l80.37-77.66,2.61-2.52Z"/><path d="M387.59,509.77v43H1.5Q0,533.23,0,513.28c0-1.17,0-2.34,0-3.51Z"/><rect x="287.43" y="388.68" width="43" height="142.59"/><rect x="126.86" y="357.02" width="43" height="156.6"/><polygon points="336.56 308.06 222.91 308.06 222.91 265.06 316.67 265.06 371.21 200.89 403.98 228.74 336.56 308.06"/><path d="M426.2,590.84v429q-21.84-3.76-43-9.33V633.84h-369q-5.09-21.17-8.4-43Z"/><polygon points="209.69 737.19 166.69 723.66 166.69 612.34 209.69 612.34 209.69 737.19"/><path d="M150.91,745.23v43H79.64q-13.23-20.84-24.45-43Z"/><path d="M85,667.59v43H39.23q-8.76-21-15.67-43Z"/><path d="M238.92,869.25,196,917.14q-16.9-13.32-32.63-28l43.55-48.59Z"/><polygon points="404.7 847.8 274.44 847.8 274.44 730.3 317.44 730.3 317.44 804.8 404.7 804.8 404.7 847.8"/><path d="M44.7,423.35v43H2.12q2-21.78,5.72-43Z"/><path d="M343.16,941.7v56.56q-22-7.74-43-17.4V941.7Z"/></g></g></g></svg>