<?xml version="1.0" encoding="utf-8"?>
<!-- Generator: Adobe Illustrator 25.2.0, SVG Export Plug-In . SVG Version: 6.00 Build 0)  -->
<svg version="1.1" id="Calque_1" xmlns="http://www.w3.org/2000/svg" xmlns:xlink="http://www.w3.org/1999/xlink" x="0px" y="0px"
	 viewBox="0 0 1024.3 1018.7" style="enable-background:new 0 0 1024.3 1018.7;" xml:space="preserve">
<g id="Calque_2_1_">
	<g id="Calque_2-2">
		<path d="M392,327.8c11.3,0,20.5-9.1,20.6-20.4c0-11.3-9.1-20.5-20.5-20.6C364.9,287.8,364.8,326.6,392,327.8z"/>
		<path d="M212.7,440.7c-29.4,1.1-29.5,43.1-0.1,44.4c12.2-0.2,22-10.3,21.8-22.6C234.2,450.5,224.6,440.9,212.7,440.7z"/>
		<path d="M421.3,213.8c0-16-12.9-29-28.9-29.1c0,0,0,0,0,0l0,0c-14.8,0-26.5,8.6-28.2,22.9c0,3-72.2,70.8-72.2,70.8l45,0.1l42-38.9
			c0,0,8.1,3,13.2,3C408.2,242.8,421.2,229.9,421.3,213.8C421.3,213.8,421.3,213.8,421.3,213.8z"/>
		<path d="M64.8,442.2c0-14.2-11.4-25.8-25.7-25.8c0,0,0,0,0,0l0,0c-12.3-0.3-18,4.9-22.5,13H6.1L2.5,458h16.3
			C32.8,477,64.7,467.1,64.8,442.2z"/>
		<path d="M491.1,629c-0.5-1.7-1.2-3.4-2-5c-5-11-14.3-39.8-16.9-44c-3-5-8-15-11-20s-16.9-28-24.9-38.1c-5-6.4-9.4-13.2-13.2-20.4
			c0,0,3.4-7.3,3.4-12.2c0-13.3-10.7-24-23.9-24.1s-24,10.7-24.1,23.9l0,0c0,8.7,10.7,20,10.7,20l-80.6-0.2l0.3-106.9
			c20.5-2.5,38.7-14.9,40-43c-2.1-57.4-84.1-57.6-86.5-0.2c0,5.2,2.2,11.6,4.6,16.9c1.8,4,3.8,7.9,6.1,11.6l-2,121.5l-112-0.3
			l0.4-150l45.5,0.1c6.2-1.4,11.8-4.7,16-9.5c7-8,8-11,9-14s0.5-57,0.5-57l67.9-69.8c35.1-1.1,36.6-52.1,0.1-54
			c-16.9-0.4-30,16.1-26.5,32.2c-13.1,12.4-41.2,38.3-54.6,50.6c-1.9,1.2-15,13.1-17,17c-3.4,5.1-5.5,10.9-6,17l-0.1,51l-158,0.6
			l-13.1,33l-1,2l100,0.2l-1.3,149L7.9,506.9H0c0,11.4,0.3,22.8,1,34l409.3,1l48.9,61.2c1.3,1.4,2.4,3.1,3,5c1,3,1,10,1,13
			l-0.1,21.6c0,0-7.3,9.6-7.3,16.7c0,12.5,10.1,22.7,22.7,22.8c12.5,0,22.7-10.1,22.8-22.7c0-7.8-9.3-18.3-9.3-18.3
			S492.1,632,491.1,629z"/>
		<path d="M121.8,683.1c0-14.9-12-27-26.9-27.1c0,0,0,0,0,0l0,0c-8.2,0.1-17.8,3.9-21.2,10.2l-48.6,0.6c3.6,10.9,7.5,21.7,11.8,32.3
			l35.8-0.7C87,719.5,121.3,710.3,121.8,683.1z"/>
		<path d="M221.6,827.4c-7,0-15.9,4.2-20,10c-2.6,3.5-4,13-4,13l-35,31.6c8.5,7.9,17.3,15.6,26.4,23l31.7-31.5h0.9
			C250.7,872.3,251.7,828.2,221.6,827.4z"/>
		<path d="M421.5,807.5l0.2-138.8c0.6-10.8,0.6-21.5,0.1-32.3c-0.9-17.3,0.7-9.8-2.7-19.6c-2.4-6.4-6.5-11.9-12-16
			c0,0-16-13-32-14.1S5.9,586.8,5.9,586.8c1.8,11.5,3.9,23,6.5,34.3l147.3,0.3l-0.2,91.6c0,0-13.1,6.2-20.7,15.1
			c-4.2,4.9-6.4,15.7-6.4,15.7l-75.2-0.2c6.5,12.4,13.4,24.5,20.9,36.3l62.3,0.2c24,31.9,77,15.3,77.4-26.5c0.4-18.9-7.4-28-19-36
			l0.2-95.4l172.8,0.4c1.9,1.1,3.7,2.4,5.2,4c1.6,1.5,2.9,3.1,4,5c2,3,1,2,2,4s-0.1,25.6-0.1,25.6l-0.4,148.4l-76.4-0.3l0.5-72.1
			c38.7-18.6,29.3-77.3-16.9-79c-44.1,0.5-57,59.2-18.1,78.5c0,0-2,55.5,0.9,78.5c0.6,5,2.4,9.7,5,14c1.2,1.9,7.3,10.7,17,12
			c0.2,0,0.1,1,8,1l81,0.2l-1.5,159.8c12.8,3.3,25.8,6.2,39,8.5l0.4-169.1l41.1,0.1l-0.4,174.6c4,0.4,8.1,0.7,12.1,1l25.2-162.5
			l-0.5-47.3L421.5,807.5z"/>
		<path d="M281.9,916.5c0,15,6,24.2,17.5,28.8l-0.1,27.9c10.9,4.9,21.9,9.5,33.1,13.7l0.1-41.1c4.2-1.2,8-3.7,10.8-7.1
			c4.6-5.6,7.6-15.5,7.6-22C349.3,872.9,283.8,872.7,281.9,916.5z"/>
		<path d="M515.6,0.1C274-3.6,110.1,172.9,52.9,280c19,0,57-0.9,72-0.8C179.7,188.8,320.2,60,511.4,63
			c247,0.6,446.7,200.2,446.1,445.8C957.1,696,842.7,851.8,678.1,920.2c-0.7-68.7,5.7-188.2-11.1-259.8c-2-8-12.9-43-13.9-49
			s-19.9-52-19.9-52s-12.8-33.8-20.9-47c-8-13-6.9-28-5.9-32s9-12,9-12c4.2-3.9,31.5-28.1,44.1-36.9c13-10,32-16.9,32-16.9
			c11-6,182-12.6,186-14.6s14-8,14-13v-5.4l-249-0.2c0,0-11,0-10-2s2-2,8-6s18-7,19-6s232,1.3,232,1.3V368c0,0-1-7-4-9s-9-4-16-7
			s-21-5-29-7.1c0,0-9.7-1.9-42-8.1c-9.8-1.9-15.8-3.1-24-5.1c-6.4-1.5-9.2-2.4-16-4c-9.7-2.4-17.6-4-23-5c0,0-12-4-16-9s-4-6-4-6
			s-13-14-17-19s-16-14-16-14s-9.2-8.4-31-16.1c-5.2-1.8-9.7-3.6-9.7-3.6c-9.4-2.7-7.8-2.5-20-4.5c-5.2-0.8-10.4-1.2-15.7-1.1
			c-5,0.1-22.4,1.4-27.1,1.5c-9.3,0.4-18.5,1.5-27.5,3.4c-10.6,2.5-19,7.5-36,16.9c-9.3,5.1-17.6,11.7-24.7,19.6c-8,9-14,16-21.1,30
			s-12,19-18.1,45s-3.1,44-3.1,44s-2,11,0.9,36s4.9,34,14.9,55s12.9,32,20.9,43s19.9,39,22.8,44.5c3.8,7.1,8,16.8,10,20.6
			c1,2,6,16,11.9,34s1,4,5.8,23.5s0,19.5,5,40.5s1.9,50,1.9,50s2-2-2.1,39s-1,12-2.1,24s-10.1,52-19.2,91s0,0-4,21
			s-8.2,61.5-8.2,61.5l-0.1,25.2c36,0.4,107.6-11.1,107.7-11.1c0.3-85.4-0.3-170.9,0-256.3c-0.6-8.3-1-16-1.9-24
			c-1.7-8.1-2.2-22-3.9-30l-4.9-30l-4.9-23c0,0-9.9-31-10.9-32s-8-20-8-20l-9.9-24c-7.2-13.8-15.5-31-20.9-45c-1.3-2.5-1.7-5.6-3-9
			c-1.3-3.6-2.3-7.3-3-11c-0.6-9.7,0.1-19.5,2.1-29c2.8-10.6,7.2-20.7,13.1-30c3.8-3.9,7.8-7.6,12-11c4.3-3.4,7.7-5.3,14-9
			c7.5-4.4,9.7-4.9,15.7-5.5c2.8-0.2,5.6,0,8.3,0.5c2.2,0.5,4.3,1.5,6,3c4.7,4.1,5.9,11.2,4,14c-0.5,0.8,0,1.5-5,5
			c-0.4,0.3-2.7,1.8-3,2c-3.3,2.3-5.7,3.2-8,5c-12,9-8,5-17,11s-15,22-14.1,31s8.4,33.9,11.9,40c4,7,15.9,40,21.9,50.1
			c6.2,10.3,10.9,31,13.9,37c3.2,6.5,8.9,35,11.9,41s6.9,40,8.9,49c1.4,6.9,2.4,13.9,3,21c2.1,65.3,2.2,133.3-0.2,203.8
			c-0.7,22.3-1.7,44.3-2.9,66c227.1-68.2,382.1-270.8,382.5-489.9C1024.8,205.7,730.6,0.6,515.6,0.1z M743,342.3
			c0.7-2.9,6.5-4,13-2.4s11.1,5.3,10.4,8.2s-6.5,4-13,2.4S742.3,345.2,743,342.3z M620.7,356.3c-16.7,0-30.2-13.6-30.2-30.3
			c0-16.7,13.6-30.2,30.3-30.2c16.7,0,30.2,13.6,30.2,30.3C651,342.8,637.4,356.4,620.7,356.3L620.7,356.3z"/>
	</g>
</g>
</svg>
