<svg xmlns="http://www.w3.org/2000/svg" viewBox="0 0 1024.26 1018.73"><defs><style>.cls-1{fill:#fff;}</style></defs><g id="Calque_2" data-name="Calque 2"><g id="Calque_2-2" data-name="Calque 2"><path class="cls-1" d="M392,327.76a20.5,20.5,0,1,0,.1-41C364.9,287.78,364.83,326.62,392,327.76Z"/><path class="cls-1" d="M212.74,440.66c-29.42,1.1-29.51,43.12-.11,44.35a22.18,22.18,0,0,0,.11-44.35Z"/><path class="cls-1" d="M421.28,213.83a29,29,0,0,0-28.93-29.07h0c-14.82,0-26.46,8.59-28.23,22.94,0,3-72.17,70.83-72.17,70.83l45,.1L379,239.73s8.08,3,13.17,3A29,29,0,0,0,421.28,213.83Z"/><path class="cls-1" d="M64.83,442.21a25.75,25.75,0,0,0-25.71-25.83h0c-12.33-.28-18,4.9-22.47,13.05H6.07L2.46,458H18.74C32.78,477,64.7,467.12,64.83,442.21Z"/><path class="cls-1" d="M491.12,629a33.21,33.21,0,0,0-2-5c-5-11-14.34-39.75-16.9-44-3-5-8-15-11-20s-16.93-28-24.91-38.06a143,143,0,0,1-13.25-20.39s3.38-7.26,3.39-12.23a24,24,0,0,0-48-.12c0,8.7,10.68,20,10.68,20L308.51,509l.26-106.89c20.47-2.51,38.72-14.94,40-43-2.14-57.36-84.09-57.57-86.5-.21,0,5.23,2.16,11.56,4.56,16.94a103.18,103.18,0,0,0,6.1,11.59l-2,121.5-112-.27.36-150,45.48.11a30,30,0,0,0,16-9.46c7-8,8-11,9-14s.48-57,.48-57l67.87-69.77c35.15-1.05,36.61-52.12.12-54-16.86-.35-30,16.15-26.55,32.24-13.09,12.35-41.19,38.26-54.64,50.57-1.91,1.21-15,13.08-17,17a36,36,0,0,0-6,17l-.13,51-158,.63L22.84,356l-1,2,100,.24-1.31,149L7.9,506.85H0q-.06,17.13,1,34l409.31,1L459.17,603a14,14,0,0,1,3,5c1,3,1,10,1,13l-.09,21.59s-7.31,9.6-7.32,16.65a22.71,22.71,0,0,0,45.42.11c0-7.82-9.26-18.35-9.26-18.35S492.11,632,491.12,629Z"/><path class="cls-1" d="M121.84,683.12A27,27,0,0,0,94.9,656.06h0c-8.21.06-17.83,3.91-21.21,10.23l-48.59.62q5.36,16.41,11.77,32.3l35.83-.7C87,719.55,121.34,710.29,121.84,683.12Z"/><path class="cls-1" d="M221.64,827.36c-7,0-15.88,4.23-20,10-2.56,3.54-4,13-4,13l-35,31.61q12.81,11.91,26.4,23l31.66-31.53h.89C250.67,872.32,251.73,828.16,221.64,827.36Z"/><path class="cls-1" d="M421.54,807.55l.21-138.84a318.87,318.87,0,0,0,.07-32.28c-.86-17.3.69-9.78-2.68-19.58a35.23,35.23,0,0,0-12-16s-16-13-32-14.08-369.24.08-369.24.08q2.67,17.31,6.5,34.3l147.31.35-.21,91.6s-13.1,6.24-20.7,15.11c-4.23,4.94-6.36,15.71-6.36,15.71l-75.16-.18Q67,762.37,78.14,780.08l62.35.15c24,31.86,77,15.26,77.35-26.49.44-18.9-7.36-28-19-36l.23-95.39,172.82.41a23.79,23.79,0,0,1,5.2,4,21,21,0,0,1,4,5c2,3,1,2,2,4s-.06,25.63-.06,25.63l-.36,148.37-76.42-.26.5-72.08c38.69-18.63,29.3-77.27-16.85-79-44.07.47-57,59.15-18.15,78.45,0,0-2,55.5.92,78.51a35,35,0,0,0,5,14c1.16,1.86,7.32,10.7,17,12,.17,0,.13,1,8,1l81,.19-1.49,159.75q19.21,5,39,8.46l.4-169.1,41.12.08-.42,174.56q6.06.57,12.14,1l25.25-162.46-.55-47.31Z"/><path class="cls-1" d="M281.9,916.55c0,15,6,24.2,17.55,28.81l-.07,27.9q16.28,7.4,33.12,13.67l.1-41.1a21.87,21.87,0,0,0,10.82-7.13c4.58-5.63,7.61-15.47,7.62-22C349.31,872.91,283.76,872.74,281.9,916.55Z"/><path class="cls-1" d="M515.62.06C274-3.61,110.06,172.93,52.9,280c19,0,57-.87,72-.83C179.66,188.81,320.17,60,511.42,63.05c247,.59,446.73,200.19,446.14,445.83C957.06,696,842.74,851.75,678.12,920.24,677.43,851.58,683.77,732,667,660.42c-2-8-12.9-43-13.88-49s-19.88-52-19.88-52-12.77-33.78-20.89-47c-8-13-6.93-28-5.92-32s9-12,9-12c4.17-3.9,31.46-28.15,44.09-36.9,13-10,32-16.92,32-16.92,11-6,182-12.57,186-14.56s14-8,14-12.95v-5.39l-249-.22s-11,0-10-2,2-2,8-6,18-7,19-6,232,1.26,232,1.26V368s-1-7-4-9-9-4-16-7-21-5.05-29-7.07c0,0-9.67-1.85-42-8.1-9.79-1.9-15.79-3.08-24-5.06-6.38-1.54-9.2-2.38-16-4-9.65-2.36-17.61-4-23-5,0,0-12-4-16-9s-4-6-4-6-13-14-17-19-16-14-16-14-9.18-8.42-31-16.07c-5.18-1.82-9.72-3.59-9.72-3.59-9.37-2.72-7.78-2.52-20-4.48a94.16,94.16,0,0,0-15.65-1.09c-5,.09-22.38,1.42-27.06,1.48a160.3,160.3,0,0,0-27.51,3.44c-10.61,2.53-19,7.5-36,16.91A92,92,0,0,0,492.9,291c-8,9-14,16-21.07,29.95s-12.05,19-18.11,45-3.1,44-3.1,44-2,11,.91,36,4.92,34,14.87,55,12.92,32,20.9,43.05,19.9,39,22.83,44.46c3.77,7.07,8,16.75,10,20.62,1,2,6,16,11.92,34s1,4,5.85,23.54.05,19.47,5,40.48,1.88,50,1.88,50,2-2-2.09,39-1,12-2.06,24-10.12,52-19.22,90.95,0,0-4,21-8.21,61.48-8.21,61.48l-.06,25.19c36,.42,107.56-11.09,107.7-11.12.34-85.44-.33-170.87,0-256.31-.64-8.33-1-16-1.94-24-1.72-8.14-2.23-22-3.93-30l-4.93-30-4.94-23s-9.93-31-10.92-32-8-20-8-20l-9.94-24c-7.16-13.79-15.54-31-20.89-45-1.35-2.55-1.74-5.56-3-9a71,71,0,0,1-3-11,113.75,113.75,0,0,1,2.07-29,109.24,109.24,0,0,1,13.08-30,131.45,131.45,0,0,1,12-11c4.34-3.38,7.69-5.31,14-9,7.52-4.36,9.72-4.85,15.74-5.47a29.43,29.43,0,0,1,8.27.52,14.06,14.06,0,0,1,6,3c4.65,4.08,5.94,11.17,4,14-.54.78,0,1.52-5,5-.44.31-2.69,1.77-3,2-3.28,2.29-5.65,3.22-8,5-12,9-8,5-17,11s-15,22-14.07,31,8.41,33.88,11.9,40c4,7,15.91,40,21.88,50.06,6.17,10.34,10.93,31,13.91,37,3.21,6.46,8.92,35,11.91,41s6.9,40,8.88,49a187.88,187.88,0,0,1,3,21c2.08,65.27,2.18,133.29-.22,203.84q-1.11,33.43-2.94,66c227.06-68.2,382.06-270.75,382.5-489.89C1024.82,205.73,730.57.55,515.62.06ZM743,342.32c.73-2.94,6.55-4,13-2.41s11.11,5.28,10.38,8.21-6.55,4-13,2.41-11.11-5.28-10.38-8.21Zm-122.26,14a30.25,30.25,0,1,1,30.33-30.18,30.26,30.26,0,0,1-30.33,30.18h0Z"/></g></g></svg>