<svg xmlns="http://www.w3.org/2000/svg" viewBox="0 0 829.11 436.97"><defs><style>.cls-1{fill:#f5f4f1;}.cls-2{fill:#0d0d0d;}.cls-3{fill:#0a0a0a;}.cls-4{fill:#989898;}.cls-5{fill:#fefefe;}.cls-6{font-size:25px;font-family:MyriadPro-Regular, Myriad Pro;}.cls-7{letter-spacing:-0.01em;}.cls-8{letter-spacing:-0.01em;}.cls-9{letter-spacing:0.01em;}.cls-10{letter-spacing:0em;}.cls-11{letter-spacing:-0.01em;}.cls-12{letter-spacing:0.01em;}</style></defs><g id="Calque_2" data-name="Calque 2"><g id="Calque_1-2" data-name="Calque 1"><path class="cls-1" d="M204.28,435.88H3.4c.51-.64.16-.82-.46-.85l-.13-85.61V88.24L2.88,1.76c.89-.24,1.7-.51.52-1.48H827.91c-1.18.07-1.28.64-.73,1.53,0,27.48-.07,55,.06,82.43,0,3.09-.69,3.87-3.82,3.84-23-.15-45.95-.09-68.92,0-1.11,0-2.64-.94-3.41.81a.6.6,0,0,1-.34.24h-.84a.35.35,0,0,1-.28-.31c-.11-1.23-1.08-.78-1.69-.78q-36.59,0-73.17,0c-.62,0-1.58-.45-1.7.78a.34.34,0,0,1-.27.31H672a.34.34,0,0,1-.27-.31c-.11-1.23-1.08-.78-1.7-.78q-36.59,0-73.17,0c-.61,0-1.58-.45-1.69.78l0-.14c-.3-.35-.61-1-.9-1-25.77.78-51.55.11-77.32.31V2.24a7,7,0,0,0-.86,4.05Q516,47.14,516,88H439V2.24a6.94,6.94,0,0,0-.86,4.05q0,40.85-.1,81.68a1.16,1.16,0,0,0-.66.14l-74.8-.1c-.58,0-1.29-.17-1.32.79a.34.34,0,0,1-.28.31h-.84a.36.36,0,0,1-.28-.31c-.11-1.23-1.07-.78-1.69-.78Q321.58,88,285,88c-.61,0-1.58-.45-1.69.78a.35.35,0,0,1-.28.31h-.84a.35.35,0,0,1-.28-.31c-.11-1.23-1.08-.78-1.69-.78q-36.59,0-73.17,0c-.62,0-1.58-.45-1.7.78a.3.3,0,0,1-.27.28c-1.64.88-.74,2.41-.74,3.57-.08,26.11-.05,52.22-.08,78.33,0,1.32.45,2.74-.41,4l.09,0H2.82c2.17,1.13,3.56.77,4.9.77q98.12.06,196.22.07.3,0,.3.27l-.06,85.87a1.16,1.16,0,0,0-.66.14c-.62,0-1.24-.1-1.86-.1q-97.82,0-195.62,0c-.73,0-1.6-.37-2.48.73H200.91c.87,0,1.74-.07,2.61-.11,1.33.74.71,2,.71,3q.06,40.2,0,80.4c0,1,.62,2.28-.71,3-.62,0-1.24-.1-1.86-.1q-97.82,0-195.62,0c-.73,0-1.6-.37-2.48.73H200.91c.87,0,1.74-.07,2.61-.11,1.46,1,.7,2.52.7,3.76Q204.31,394.6,204.28,435.88ZM3.86,88.14v.37h199.2v-.37ZM204.42,86.8h.37V2.25h-.37ZM282.85,2.24h-.38V86.79h.38ZM360.33,86.8h.37V2.25h-.37Zm233.86,0h.37V2.24h-.37Zm77.95,0h.37V2.24h-.37Zm78,0h.38V2.24h-.38Z"/><path class="cls-2" d="M517,88c25.77-.2,51.55.47,77.32-.31.29,0,.6.65.9,1a9.26,9.26,0,0,0-.34,1.79c0,27.31,0,54.61-.08,81.92,0,2.69,1.2,2.61,3.1,2.61q37-.06,74,0h78.91l76.31-.07v87.92q-37.14,0-74.26-.06c-.8,0-1.8-.4-2.27.72h-.52c-.61-1.24-1.75-.71-2.64-.71q-36.07-.06-72.15,0c-.9,0-2-.53-2.64.71h-.53c-.6-1.24-1.75-.71-2.64-.71-24,0-48,0-71.92-.11-3,0-2.75,1.39-2.75,3.36q0,39.72,0,79.43c0,2.61.36,3.57,3.34,3.56,24.6-.16,49.2-.1,73.8-.1h78.91l76.31-.07q0,43.54,0,87.07H204.28q0-41.28-.06-82.57c0-1.24.76-2.74-.7-3.76a4.69,4.69,0,0,0,0-.53c1.33-.74.71-2,.71-3q.06-40.2,0-80.4c0-1,.62-2.28-.71-3a4.69,4.69,0,0,0,0-.53,1.16,1.16,0,0,1,.66-.14H361c24.6,0,49.2,0,73.8.07,2.48,0,3.36-.4,3.35-3.16-.11-26.73-.06-53.46-.1-80.19,0-1,.63-2.28-.71-3a4.69,4.69,0,0,0,0-.53c1.34-.73.71-2,.71-3q.06-40.22,0-80.41c0-1,.63-2.28-.71-3a4.69,4.69,0,0,0,0-.53A1.16,1.16,0,0,1,438,88H517ZM304.7,420.11q2.07-1.49,0-2.95-1.47-2.06-2.94,0c-1.38,1-1.39,2,0,2.95Q303.23,422.21,304.7,420.11ZM672.6,177.35l-.34.08v82.81h.34Zm-156.36-4,.35-.06V90.44h-.35Zm0,174h.36V264.24h-.36Zm-233.91-.15.37.07v-83h-.37Zm78,.09.33-.11V264.41h-.33Zm78.41-82.91-.38-.06v82.95h.38Zm155.91-87-.38,0V260.3h.38ZM750.09,260.3l.36-.05V177.41h-.36ZM516.7,177.43l-.38-.08v83h.38ZM438.29,433.52l.34-.1V351.37h-.34Zm-155.91-.08.37.05V351.3h-.37Zm77.95.06.35-.07V351.36h-.35Zm156.38-82.19-.37,0v82.1h.37Zm77.48,82.18.35-.05V351.35h-.35Zm78.42-82.14-.37,0v82.18h.37Zm77.94,0-.37-.1v82.24h.37ZM440.49,262.1l.14.32h73.73v-.32Zm78,0,.06.35h73.81v-.35Zm-78-86.91v.28h73.93v-.28ZM280.59,349.52l0-.36H206.71v.36Zm77.92,0,0-.38H284.64v.38Zm4.13-.47-.07.37h73.94v-.37Zm151.82.46-.06-.35H440.58v.35Zm78,0-.09-.34H518.55v.34Zm-.09-173.94.09-.37h-74v.37Z"/><path d="M827.16,435.88q0-43.53,0-87.07V174.87q0-41.76.06-83.53c0-1.7-.08-2.66-2.32-2.65-24.59.14-49.18.14-73.77.18.77-1.75,2.3-.81,3.41-.81,23-.07,45.94-.13,68.92,0,3.13,0,3.83-.75,3.82-3.84-.13-27.48-.07-54.95-.06-82.43l1.48,0q0,215.37-.11,430.73C828.55,433.47,830.4,436,827.16,435.88Z"/><path class="cls-3" d="M2.81,88.51v86.71L1.15,175V88.75Z"/><path class="cls-3" d="M2.88,1.76q0,43.25-.07,86.48L1.15,88V1.78Z"/><path class="cls-3" d="M2.81,262.45v86.7l-1.66-.24V262.69Z"/><path class="cls-3" d="M2.81,349.42q.06,42.81.13,85.61l-.29.85c-1.87.47-1.49-.88-1.49-1.87q0-12.19,0-24.37v-60Z"/><path class="cls-3" d="M2.81,175.48v86.7l-1.66-.24V175.72Z"/><path class="cls-4" d="M2.88,1.76l-1.73,0C.69-.53,2.45.48,3.4.28,4.58,1.25,3.77,1.52,2.88,1.76Z"/><path class="cls-4" d="M828.66,1.78l-1.48,0c-.55-.89-.45-1.46.73-1.53C829.39.17,828.35,1.31,828.66,1.78Z"/><path class="cls-4" d="M1.15,88l1.66.24v.27l-1.66.24Z"/><path class="cls-4" d="M2.81,175.48l-1.66.24V175l1.66.25Z"/><path class="cls-4" d="M1.15,261.94l1.66.24v.27l-1.66.24Z"/><path class="cls-4" d="M2.81,349.42l-1.66.24v-.75l1.66.24Z"/><path class="cls-4" d="M2.65,435.88l.29-.85c.62,0,1,.21.46.85Z"/><path class="cls-5" d="M437.38,88.64c1.34.74.71,2,.71,3q.06,40.2,0,80.41c0,1,.63,2.28-.71,3H362.14v.53h75.24c1.34.74.71,2,.71,3,0,26.73,0,53.46.1,80.19,0,2.76-.87,3.17-3.35,3.16-24.6-.1-49.2-.07-73.8-.07v-85a7,7,0,0,0-.85,4q-.06,40.46-.11,80.93h-77v-85a7,7,0,0,0-.86,4q0,40.46-.1,80.93h-77c0-1.37-.1-2.74-.11-4.11q0-39.11-.05-78.2c0-1.15.89-2.68-.74-3.56q0-.3-.3-.27c.06-.1.18-.2.17-.28a3.62,3.62,0,0,0-.17-.56l-.09,0a.9.9,0,0,0,1.24.8H281v-.87H205.09q0-42.91,0-85.83a.3.3,0,0,0,.27-.28h76.56a.35.35,0,0,0,.28.31v84.81H283V89.11a.35.35,0,0,0,.28-.31h76.55a.36.36,0,0,0,.28.31v84.81H361V89.11a.34.34,0,0,0,.28-.31l8.21,0ZM284.2,175.11l0,.38H359v-.38Z"/><path class="cls-5" d="M671.9,174.94q-37,0-74,0c-1.9,0-3.12.08-3.1-2.61.11-27.31.07-54.61.08-81.92a9.26,9.26,0,0,1,.34-1.79l0,.14h76.56a.34.34,0,0,0,.27.31Q671.94,132,671.9,174.94Z"/><path class="cls-5" d="M749.85,174.94h-77l-.06-85.83a.34.34,0,0,0,.27-.31h76.56a.35.35,0,0,0,.28.31Z"/><path class="cls-5" d="M751.09,88.87c24.59,0,49.18,0,73.77-.18,2.24,0,2.32,1,2.32,2.65q-.06,41.76-.06,83.53l-76.31.07-.06-85.83A.6.6,0,0,0,751.09,88.87Z"/><path d="M3.86,88.14H203.07v.37H3.87Z"/><path d="M203.52,262.05a4.69,4.69,0,0,1,0,.53c-.87,0-1.74.11-2.61.11H3.56c.88-1.1,1.75-.73,2.48-.73q97.8,0,195.62,0C202.28,262,202.9,262,203.52,262.05Z"/><path d="M203.52,349a4.69,4.69,0,0,1,0,.53c-.87,0-1.74.11-2.61.11H3.56c.88-1.1,1.75-.73,2.48-.73q97.8,0,195.62,0C202.28,348.92,202.9,349,203.52,349Z"/><path d="M203.94,174.93a3.62,3.62,0,0,1,.17.56c0,.08-.11.18-.17.28q-98.11,0-196.22-.07c-1.34,0-2.73.36-4.9-.77Z"/><path d="M439,88h-1q0-40.84.1-81.68a6.94,6.94,0,0,1,.86-4Z"/><path d="M517,88h-1q0-40.84.1-81.68a7,7,0,0,1,.86-4Z"/><path d="M205.09,175.78a.9.9,0,0,1-1.24-.8c.86-1.26.41-2.68.41-4,0-26.11,0-52.22.08-78.33,0-1.16-.9-2.69.74-3.57q0,42.92,0,85.83Z"/><path d="M204.42,86.8V2.25h.37V86.79Z"/><path d="M282.85,2.24V86.79h-.38V2.25Z"/><path d="M360.33,86.8V2.25h.37V86.79Z"/><path d="M594.19,86.79V2.24h.37V86.8Z"/><path d="M672.14,86.79V2.24h.37V86.8Z"/><path d="M750.09,86.79V2.25h.38V86.79Z"/><path d="M672.8,89.11l.06,85.83h-1q0-42.91.05-85.83Z"/><path d="M750.75,89.11l.06,85.83h-1l.06-85.83Z"/><path d="M204.24,176c1.63.88.73,2.41.74,3.56q.11,39.1.05,78.2c0,1.37.07,2.74.11,4.11h-1Z"/><path d="M283,89.11v84.81h-.84V89.11Z"/><path d="M361,89.11v84.81h-.84V89.11Z"/><path d="M281.91,88.8H205.35c.12-1.23,1.08-.78,1.7-.78q36.58,0,73.17,0C280.83,88,281.8,87.57,281.91,88.8Z"/><path d="M359.86,88.8H283.31c.11-1.23,1.08-.78,1.69-.78q36.58,0,73.17,0C358.79,88,359.75,87.57,359.86,88.8Z"/><path d="M437.38,88.64l-67.91.11-8.21,0c0-1,.74-.79,1.32-.79l74.8.1A4.69,4.69,0,0,1,437.38,88.64Z"/><path d="M671.68,88.8H595.12c.11-1.23,1.08-.78,1.69-.78Q633.4,88,670,88C670.6,88,671.57,87.57,671.68,88.8Z"/><path d="M749.63,88.8H673.07c.12-1.23,1.08-.78,1.7-.78q36.59,0,73.17,0C748.55,88,749.52,87.57,749.63,88.8Z"/><path class="cls-5" d="M672.64,263.45c.6-1.24,1.74-.71,2.64-.71q36.08-.06,72.15,0c.89,0,2-.53,2.64.71,0,1.49-.11,3-.11,4.49q-.06,40.47-.11,80.94h-77c0-1.5-.1-3-.1-4.49Q672.69,303.92,672.64,263.45Z"/><path class="cls-5" d="M671.9,348.88c-24.6,0-49.2-.06-73.8.1-3,0-3.35-1-3.34-3.56q.13-39.72,0-79.43c0-2-.24-3.38,2.75-3.36,24,.15,47.94.07,71.92.11.89,0,2-.53,2.64.71,0,1.49-.1,3-.1,4.49Q671.94,308.41,671.9,348.88Z"/><path class="cls-5" d="M827.12,262.79v86l-76.31.07c0-1.5-.1-3-.1-4.49l-.12-80.94c.47-1.12,1.47-.72,2.27-.72Q790,262.73,827.12,262.79Z"/><path d="M671.9,348.88q0-40.47.11-80.94c0-1.5.07-3,.1-4.49h.53q.06,40.47.12,80.94c0,1.49.06,3,.1,4.49Z"/><path d="M750.59,263.45l.12,80.94c0,1.49.06,3,.1,4.49h-1q0-40.47.11-80.94c0-1.5.07-3,.11-4.49Z"/><path d="M282.13,261.91q0-40.47.1-80.93a7,7,0,0,1,.86-4v85Z"/><path d="M360.08,261.91q.06-40.47.11-80.93a7,7,0,0,1,.85-4v85Z"/><path d="M672.6,177.35v82.88h-.34V177.43Z"/><path d="M516.24,173.34V90.45h.35v82.84Z"/><ellipse cx="516.47" cy="305.8" rx="0.25" ry="58.78"/><path d="M282.38,347.21V264.32h.37v83Z"/><path d="M360.34,347.3V264.41h.33v82.78Z"/><path d="M438.75,264.39v82.89h-.38V264.33Z"/><path d="M594.66,177.41V260.3h-.38V177.37Z"/><path d="M750.09,260.3V177.41h.36v82.84Z"/><path d="M516.7,177.43v82.88h-.38v-83Z"/><path d="M438.29,433.52V351.38h.34v82.05Z"/><path d="M282.38,433.44V351.3h.37v82.19Z"/><path d="M360.33,433.5V351.36h.35v82.07Z"/><path d="M516.71,351.31v82.14h-.37v-82.1Z"/><path d="M594.19,433.49V351.36h.35v82.09Z"/><path d="M672.61,351.35v82.13h-.37V351.31Z"/><path d="M750.55,351.38v82.13h-.37V351.28Z"/><path d="M440.49,262.1h73.87v.32H440.63Z"/><path d="M518.48,262.09h73.87v.35H518.54Z"/><ellipse cx="477.42" cy="175.32" rx="52.27" ry="0.2"/><path d="M437.38,175.61H362.14v-.53h75.24A4.69,4.69,0,0,1,437.38,175.61Z"/><path d="M280.59,349.52H206.72v-.36h73.84Z"/><path d="M358.51,349.53H284.64v-.38h73.89Z"/><path d="M362.64,349.06h73.87v.37H362.57Z"/><path d="M514.46,349.52H440.58v-.35H514.4Z"/><path d="M592.43,349.51H518.55v-.34h73.79Z"/><path d="M592.34,175.57H518.46v-.37h74Z"/><path class="cls-2" d="M301.75,417.16q1.47-2.06,2.94,0l.06-.05h-3.06Z"/><path class="cls-2" d="M301.74,420.11c-1.38-1-1.37-2,0-2.95l-.06-.05v3.06Z"/><path class="cls-2" d="M304.69,417.16q2.08,1.47,0,2.95l.05.06v-3.06Z"/><path class="cls-2" d="M304.7,420.11q-1.47,2.1-3,0l-.05.06h3.06Z"/><path d="M205.09,174.91H281v.87H205.09Z"/><path d="M284.2,175.11H359v.38h-74.8Z"/><path class="cls-2" d="M304.75,420.17h-3.06v-3.06h3.06Z"/><path class="cls-3" d="M828.53,1.28,2,2.52,4.31,1.28,828.29,0Z"/><path class="cls-3" d="M826.53,435.76,0,437l2.31-1.71,824-1.28Z"/><text class="cls-6" transform="translate(56.42 54.01)"><tspan class="cls-7">C</tspan><tspan x="14.32" y="0">ap</tspan><tspan class="cls-8" x="40.6" y="0">t</tspan><tspan x="48.72" y="0">eurs</tspan></text><text class="cls-6" transform="translate(28.01 141.17)">Suivie de li<tspan class="cls-8" x="111.32" y="0">g</tspan><tspan x="125.15" y="0">ne</tspan></text><text class="cls-6" transform="translate(7.6 227.18)"><tspan class="cls-9">I</tspan><tspan x="6.23" y="0">ndic</tspan><tspan class="cls-10" x="51.25" y="0">a</tspan><tspan class="cls-8" x="63.2" y="0">t</tspan><tspan x="71.32" y="0">eur à d</tspan><tspan class="cls-11" x="142.55" y="0">r</tspan><tspan x="150.47" y="0">oi</tspan><tspan class="cls-8" x="170.05" y="0">t</tspan><tspan x="178.17" y="0">e</tspan></text><text class="cls-6" transform="translate(40.28 300.21)"><tspan class="cls-9">I</tspan><tspan x="6.23" y="0">ndic</tspan><tspan class="cls-10" x="51.25" y="0">a</tspan><tspan class="cls-8" x="63.2" y="0">t</tspan><tspan x="71.32" y="0">eur à </tspan><tspan x="22.87" y="30">gauche</tspan></text><text class="cls-6" transform="translate(41.28 401.57)"><tspan class="cls-9">I</tspan><tspan class="cls-10" x="6.23" y="0">n</tspan><tspan class="cls-8" x="20" y="0">t</tspan><tspan x="28.13" y="0">erse</tspan><tspan class="cls-12" x="71.25" y="0">c</tspan><tspan x="82.77" y="0">tion</tspan></text><text class="cls-6" transform="translate(237.03 52.55)">0</text><text class="cls-6" transform="translate(314.86 53.94)">1</text><text class="cls-6" transform="translate(392.86 53.94)">2</text><text class="cls-6" transform="translate(470.86 53.94)">3</text><text class="cls-6" transform="translate(548.86 53.94)">4</text><text class="cls-6" transform="translate(626.54 53.18)">5</text><text class="cls-6" transform="translate(705.57 53.4)">6</text><text class="cls-6" transform="translate(783.67 52.55)">7</text></g></g></svg>