<svg xmlns="http://www.w3.org/2000/svg" viewBox="0 0 169.32 158.76"><defs><style>.cls-1,.cls-2{fill:none;stroke:#fff;stroke-linecap:round;stroke-linejoin:round;}.cls-1{stroke-width:1.02px;}.cls-2{stroke-width:1.02px;}</style></defs><g id="Calque_2" data-name="Calque 2"><g id="Calque_1-2" data-name="Calque 1"><polyline class="cls-1" points="14.67 84.87 4.53 90.75 4.53 36.39"/><line class="cls-1" x1="15.87" y1="85.59" x2="52.77" y2="64.29"/><path class="cls-2" d="M13.8,68.26c0,.5.34.69.77.44a1.78,1.78,0,0,0,.79-1.36c0-.5-.34-.69-.77-.44a1.78,1.78,0,0,0-.79,1.36"/><line class="cls-1" x1="4.53" y1="36.39" x2="107.01" y2="95.61"/><path class="cls-2" d="M120.3,129.76c0,.5.34.69.77.44a1.78,1.78,0,0,0,.79-1.36c0-.5-.34-.69-.77-.44a1.78,1.78,0,0,0-.79,1.36"/><path class="cls-2" d="M1.74,92.3a1.78,1.78,0,0,0,.79,1.36c.43.25.77.06.77-.44a1.78,1.78,0,0,0-.79-1.36c-.43-.25-.77-.06-.77.44"/><path class="cls-2" d="M109.31,153.72a2.36,2.36,0,0,0,.75,1.29"/><path class="cls-2" d="M108.09,154.16a2.2,2.2,0,0,0,1,1.73c.55.32,1,.06,1-.57a2.2,2.2,0,0,0-1-1.73c-.55-.32-1-.06-1,.57"/><line class="cls-1" x1="107.01" y1="138.21" x2="14.67" y2="84.87"/><polyline class="cls-1" points="116.01 150.75 119.97 153.09 168.81 124.89"/><polyline class="cls-1" points="0.51 94.41 0.51 27.15 2.55 26.01"/><line class="cls-1" x1="6.51" y1="28.29" x2="54.69" y2="0.51"/><line class="cls-1" x1="107.01" y1="149.91" x2="4.53" y2="90.75"/><polyline class="cls-1" points="119.97 153.09 119.97 148.47 112.23 152.91 112.23 157.53 111.03 158.25 111.03 90.93 113.07 89.79 113.07 94.41 165.21 64.35 168.81 124.89"/><line class="cls-1" x1="111.03" y1="158.25" x2="0.51" y2="94.41"/><line class="cls-1" x1="107.01" y1="95.61" x2="107.01" y2="149.91"/><line class="cls-1" x1="54.69" y1="0.51" x2="165.21" y2="64.35"/><path class="cls-2" d="M108.09,91.52a2.2,2.2,0,0,0,1,1.73c.55.32,1,.06,1-.57a2.2,2.2,0,0,0-1-1.73c-.55-.32-1-.06-1,.57"/><path class="cls-2" d="M1.59,30a2.2,2.2,0,0,0,1,1.73c.55.32,1,.06,1-.57a2.2,2.2,0,0,0-1-1.73c-.55-.32-1-.06-1,.57"/><line class="cls-1" x1="0.51" y1="27.15" x2="111.03" y2="90.93"/><line class="cls-1" x1="2.55" y1="26.01" x2="113.07" y2="89.79"/></g></g></svg>