<svg id="Calque_1" data-name="Calque 1" xmlns="http://www.w3.org/2000/svg" viewBox="0 0 980 980"><path d="M526,60c1.08,1.24,2.08,2.55,3.24,3.71Q688.48,223,847.7,382.32c1.39,1.39,2.24,3.32,3.34,5l2.34,0c1.11-1.67,2-3.57,3.36-4.95q121.89-122.05,243.91-244c10.82-10.81,21.35-22.38,33.81-31,32-22.19,66.71-24.41,101.06-6.14,34.16,18.16,51.46,47.89,51.63,86.76.12,27.36-10.73,50.34-30,69.62q-71.78,71.75-143.4,143.66-280,280-559.95,560.05a34.63,34.63,0,0,1-16.1,9.4q-72.12,19.13-144.18,38.46c-17.5,4.66-30.44-8.24-25.79-25.67,13-48.87,26-97.75,39.45-146.51,1.33-4.84,4.63-9.66,8.23-13.27q121.78-122.16,243.91-244a51.59,51.59,0,0,1,4.88-3.84c-1.93-2.07-3-3.3-4.15-4.46q-160-159.95-320-319.89c-.93-.93-2-1.7-3-2.55v-1c1-.84,2.08-1.6,3-2.52Q431.26,154.26,522.48,63c.92-.92,1.68-2,2.52-3Zm687.29,184.47c-27-27-54-53.95-80.15-80.15L446.55,850.9l80.05,80.47ZM572.47,254.84l45-44.51c-10.62-10.63-21-21.06-32.49-32.51L560.55,202.4l-27.67-27.66,25-24.73-32.36-32.39L394.6,248.53,691.74,545.39l105.59-105.6L772.5,415.05c8.55-8.53,17-17,24.51-24.44l-31.83-32.25L721.27,403c-9.27-9.38-18.45-18.69-28.2-28.55l44.17-44L705.54,298l-24.71,24.87L653,295.12l25.06-24.71L645.36,238,600.7,282.85Z" transform="translate(-337 -60)"/><path d="M1128,1040c-1.19-1.36-2.31-2.79-3.58-4.07Q973.7,885.12,822.93,734.36a32.45,32.45,0,0,0-4-3l28.53-28.6,280.41,280.14,131.87-131.61-12.17-12-25,25.25-28.46-29.08,24.8-24-31.7-31.71-44.5,44.73-28.68-28.63,44.76-44.41-32.06-32-24.46,24.75L1074.17,716l24.94-24.3L1067,660.11l-44.31,44.5c-10.19-10.3-19.41-19.6-29-29.26l44.81-43.75-31.6-31.53-23.7,24.14-28.74-28.32L1007.3,542c1.32,1.26,2.53,2.37,3.68,3.52q151.15,151.1,302.29,302.19c1.17,1.17,2.48,2.18,3.73,3.26v1c-.89.72-1.84,1.37-2.65,2.17q-91.61,91.58-183.18,183.18c-.8.81-1.45,1.76-2.17,2.65Z" transform="translate(-337 -60)"/></svg>