<svg xmlns="http://www.w3.org/2000/svg" viewBox="0 0 553.84 697.62"><defs><style>.cls-1{font-size:30px;}.cls-1,.cls-21,.cls-32,.cls-5{fill:#fff;}.cls-1,.cls-32,.cls-5{font-family:MyriadPro-Regular, Myriad Pro;}.cls-2{fill:none;stroke:#fff;stroke-miterlimit:10;}.cls-3{letter-spacing:-0.02em;}.cls-4{letter-spacing:0.03em;}.cls-5{font-size:13px;}.cls-6{letter-spacing:0.01em;}.cls-7{letter-spacing:0em;}.cls-8{letter-spacing:0.01em;}.cls-9{letter-spacing:0em;}.cls-10{letter-spacing:-0.02em;}.cls-11{letter-spacing:-0.01em;}.cls-12{letter-spacing:0em;}.cls-13{letter-spacing:-0.01em;}.cls-14{letter-spacing:-0.01em;}.cls-15{letter-spacing:0.01em;}.cls-16{letter-spacing:-0.01em;}.cls-17{letter-spacing:-0.04em;}.cls-18{letter-spacing:-0.07em;}.cls-19{letter-spacing:0em;}.cls-20{letter-spacing:0.01em;}.cls-22{letter-spacing:-0.05em;}.cls-23{letter-spacing:0.02em;}.cls-24{letter-spacing:-0.01em;}.cls-25{letter-spacing:-0.04em;}.cls-26{letter-spacing:-0.03em;}.cls-27{letter-spacing:0em;}.cls-28{letter-spacing:0em;}.cls-29{letter-spacing:0em;}.cls-30{letter-spacing:0.02em;}.cls-31{letter-spacing:0em;}.cls-32{font-size:24px;}</style></defs><g id="Calque_2" data-name="Calque 2"><g id="Calque_1-2" data-name="Calque 1"><text class="cls-1" transform="translate(85.64 41.97)">SÉANCE</text><rect class="cls-2" x="270.04" y="0.82" width="269" height="61"/><rect class="cls-2" x="1.04" y="61.82" width="269" height="61"/><rect class="cls-2" x="270.04" y="61.82" width="269" height="61"/><rect class="cls-2" x="1.04" y="122.82" width="269" height="61"/><rect class="cls-2" x="270.04" y="122.82" width="269" height="61"/><rect class="cls-2" x="1.04" y="183.82" width="269" height="85.5"/><rect class="cls-2" x="270.04" y="183.82" width="269" height="85.5"/><rect class="cls-2" x="1.04" y="269.82" width="269" height="61"/><rect class="cls-2" x="270.04" y="269.82" width="269" height="61"/><rect class="cls-2" x="1.04" y="330.82" width="269" height="61"/><rect class="cls-2" x="270.04" y="330.82" width="269" height="61"/><rect class="cls-2" x="1.04" y="391.82" width="269" height="61"/><rect class="cls-2" x="270.04" y="391.82" width="269" height="61"/><rect class="cls-2" x="1.04" y="452.82" width="269" height="61"/><rect class="cls-2" x="270.04" y="452.82" width="269" height="61"/><rect class="cls-2" x="1.04" y="513.82" width="269" height="61"/><rect class="cls-2" x="270.04" y="513.82" width="269" height="61"/><rect class="cls-2" x="1.04" y="574.82" width="269" height="61"/><rect class="cls-2" x="270.04" y="574.82" width="269" height="61"/><rect class="cls-2" x="1.04" y="635.82" width="269" height="61"/><rect class="cls-2" x="270.04" y="635.82" width="269" height="61"/><rect class="cls-2" x="0.5" y="0.5" width="269" height="61"/><text class="cls-1" transform="translate(340.98 42.2)"><tspan class="cls-3">A</tspan><tspan class="cls-4" x="17.91" y="0">C</tspan><tspan x="36.15" y="0">TIVITÉS</tspan></text><text class="cls-5" transform="translate(284.84 96.44)">-<tspan class="cls-6" x="3.99" y="0">I</tspan><tspan x="7.23" y="0">niti</tspan><tspan class="cls-7" x="24.83" y="0">a</tspan><tspan x="31.04" y="0">tion Eagle : </tspan><tspan class="cls-8" x="93.21" y="0">S</tspan><tspan x="99.69" y="0">chéma</tspan></text><text class="cls-5" transform="translate(284.84 157.44)">-<tspan class="cls-6" x="3.99" y="0">I</tspan><tspan x="7.23" y="0">niti</tspan><tspan class="cls-7" x="24.83" y="0">a</tspan><tspan x="31.04" y="0">tion Eagle : </tspan><tspan class="cls-9" x="93.21" y="0">R</tspan><tspan x="100.25" y="0">outage</tspan></text><text class="cls-5" transform="translate(284.84 207.04)">- <tspan class="cls-10" x="6.75" y="0">P</tspan><tspan class="cls-11" x="13.45" y="0">r</tspan><tspan x="17.58" y="0">ése</tspan><tspan class="cls-7" x="35.75" y="0">n</tspan><tspan x="42.91" y="0">t</tspan><tspan class="cls-12" x="47.21" y="0">a</tspan><tspan x="53.43" y="0">tion du sujet</tspan><tspan x="0" y="15.6">- Dist</tspan><tspan class="cls-9" x="27.9" y="15.6">r</tspan><tspan x="32.2" y="15.6">ibution des docume</tspan><tspan class="cls-7" x="140.81" y="15.6">n</tspan><tspan x="147.98" y="15.6">ts</tspan><tspan x="0" y="31.2">- </tspan><tspan class="cls-9" x="6.75" y="31.2">D</tspan><tspan x="15.46" y="31.2">é</tspan><tspan class="cls-13" x="21.97" y="31.2">c</tspan><tspan x="27.72" y="31.2">oupage </tspan><tspan class="cls-14" x="72.21" y="31.2">f</tspan><tspan x="75.84" y="31.2">on</tspan><tspan class="cls-15" x="90.19" y="31.2">c</tspan><tspan x="96.19" y="31.2">tionnel</tspan><tspan x="0" y="46.8">- </tspan><tspan class="cls-9" x="6.75" y="46.8">D</tspan><tspan x="15.46" y="46.8">ébut du docume</tspan><tspan class="cls-7" x="105.65" y="46.8">n</tspan><tspan x="112.81" y="46.8">t </tspan><tspan class="cls-11" x="119.87" y="46.8">r</tspan><tspan x="123.99" y="46.8">essou</tspan><tspan class="cls-11" x="155.1" y="46.8">r</tspan><tspan class="cls-16" x="159.22" y="46.8">c</tspan><tspan x="164.97" y="46.8">es SAE</tspan></text><text class="cls-5" transform="translate(284.84 295.64)">-<tspan class="cls-17" x="3.99" y="0"> </tspan><tspan class="cls-18" x="6.21" y="0">T</tspan><tspan x="11.75" y="0">est et </tspan><tspan class="cls-12" x="44.04" y="0">v</tspan><tspan x="50.24" y="0">alid</tspan><tspan class="cls-7" x="69.95" y="0">a</tspan><tspan x="76.17" y="0">tion seuils</tspan><tspan x="0" y="15.6">- </tspan><tspan class="cls-9" x="6.75" y="15.6">D</tspan><tspan x="15.46" y="15.6">ocume</tspan><tspan class="cls-7" x="52.93" y="15.6">n</tspan><tspan x="60.1" y="15.6">t </tspan><tspan class="cls-11" x="67.16" y="15.6">r</tspan><tspan x="71.28" y="15.6">essou</tspan><tspan class="cls-11" x="102.39" y="15.6">r</tspan><tspan class="cls-16" x="106.51" y="15.6">c</tspan><tspan x="112.25" y="15.6">es SAE</tspan></text><text class="cls-5" transform="translate(284.84 357.64)">-<tspan class="cls-17" x="3.99" y="0"> </tspan><tspan class="cls-18" x="6.21" y="0">T</tspan><tspan x="11.75" y="0">est et </tspan><tspan class="cls-12" x="44.04" y="0">v</tspan><tspan x="50.24" y="0">alid</tspan><tspan class="cls-7" x="69.95" y="0">a</tspan><tspan x="76.17" y="0">tion </tspan><tspan class="cls-16" x="100.62" y="0">c</tspan><tspan x="106.36" y="0">ompa</tspan><tspan class="cls-19" x="138.01" y="0">r</tspan><tspan x="142.19" y="0">aison</tspan><tspan x="0" y="15.6">- </tspan><tspan class="cls-9" x="6.75" y="15.6">D</tspan><tspan x="15.46" y="15.6">ocume</tspan><tspan class="cls-7" x="52.93" y="15.6">n</tspan><tspan x="60.1" y="15.6">t </tspan><tspan class="cls-11" x="67.16" y="15.6">r</tspan><tspan x="71.28" y="15.6">essou</tspan><tspan class="cls-11" x="102.39" y="15.6">r</tspan><tspan class="cls-16" x="106.51" y="15.6">c</tspan><tspan x="112.25" y="15.6">es SAE</tspan></text><text class="cls-5" transform="translate(284.84 410.84)">-<tspan class="cls-17" x="3.99" y="0"> </tspan><tspan class="cls-18" x="6.21" y="0">T</tspan><tspan x="11.75" y="0">ests sur LED</tspan><tspan x="0" y="15.6">- </tspan><tspan class="cls-20" x="6.75" y="15.6">M</tspan><tspan x="17.28" y="15.6">élange des </tspan><tspan class="cls-16" x="78.62" y="15.6">c</tspan><tspan x="84.37" y="15.6">ouleurs</tspan><tspan x="0" y="31.2">- </tspan><tspan class="cls-9" x="6.75" y="31.2">D</tspan><tspan x="15.46" y="31.2">ocume</tspan><tspan class="cls-7" x="52.93" y="31.2">n</tspan><tspan x="60.1" y="31.2">t </tspan><tspan class="cls-11" x="67.16" y="31.2">r</tspan><tspan x="71.28" y="31.2">essou</tspan><tspan class="cls-11" x="102.39" y="31.2">r</tspan><tspan class="cls-16" x="106.51" y="31.2">c</tspan><tspan x="112.25" y="31.2">es SAE</tspan></text><path class="cls-21" d="M288.44,475.71v.84h-3.21v-.84Z"/><path class="cls-21" d="M295.44,471.84h-2.67v-1h6.49v1h-2.68v7.81h-1.14Z"/><path class="cls-21" d="M299.91,476.71a2,2,0,0,0,2.16,2.18,4.17,4.17,0,0,0,1.74-.32l.2.81a4.93,4.93,0,0,1-2.1.4,2.93,2.93,0,0,1-3.09-3.18c0-1.9,1.12-3.39,2.95-3.39,2.06,0,2.6,1.81,2.6,3a3.31,3.31,0,0,1,0,.54Zm3.36-.82a1.63,1.63,0,0,0-1.59-1.86,1.88,1.88,0,0,0-1.75,1.86Z"/><path class="cls-21" d="M305.63,478.48a3,3,0,0,0,1.51.45c.83,0,1.22-.42,1.22-.94s-.32-.84-1.17-1.15c-1.13-.41-1.66-1-1.66-1.78a1.94,1.94,0,0,1,2.17-1.85,3.12,3.12,0,0,1,1.55.39l-.29.83a2.52,2.52,0,0,0-1.29-.36c-.67,0-1.05.39-1.05.86s.38.75,1.2,1.06c1.09.42,1.65,1,1.65,1.9,0,1.1-.86,1.89-2.36,1.89a3.58,3.58,0,0,1-1.76-.43Z"/><path class="cls-21" d="M312.31,471.55v1.8H314v.87h-1.64v3.4c0,.78.22,1.22.86,1.22a2.58,2.58,0,0,0,.67-.08l.05.86a2.81,2.81,0,0,1-1,.16,1.55,1.55,0,0,1-1.23-.49,2.27,2.27,0,0,1-.44-1.63v-3.44h-1v-.87h1v-1.51Z"/><path class="cls-21" d="M320.78,476.71a2,2,0,0,0,2.16,2.18,4.17,4.17,0,0,0,1.74-.32l.2.81a5,5,0,0,1-2.1.4,2.93,2.93,0,0,1-3.09-3.18c0-1.9,1.12-3.39,2.95-3.39a2.67,2.67,0,0,1,2.6,3,5.05,5.05,0,0,1,0,.54Zm3.35-.82a1.62,1.62,0,0,0-1.58-1.86,1.89,1.89,0,0,0-1.76,1.86Z"/><path class="cls-21" d="M328,471.55v1.8h1.64v.87H328v3.4c0,.78.23,1.22.86,1.22a2.58,2.58,0,0,0,.67-.08l.05.86a2.81,2.81,0,0,1-1,.16,1.55,1.55,0,0,1-1.23-.49,2.27,2.27,0,0,1-.44-1.63v-3.44h-1v-.87h1v-1.51Z"/><path class="cls-21" d="M336.31,473.35l1.23,3.54a15.54,15.54,0,0,1,.51,1.61h0c.14-.52.32-1,.53-1.61l1.22-3.54H341l-2.47,6.3h-1.09l-2.4-6.3Z"/><path class="cls-21" d="M345.55,479.65l-.09-.8h0a2.34,2.34,0,0,1-1.93.94,1.79,1.79,0,0,1-1.92-1.81c0-1.52,1.35-2.35,3.78-2.34v-.13a1.3,1.3,0,0,0-1.43-1.46,3.17,3.17,0,0,0-1.63.47l-.26-.75a3.87,3.87,0,0,1,2.06-.56c1.93,0,2.39,1.31,2.39,2.57v2.36a8.7,8.7,0,0,0,.11,1.51Zm-.17-3.22c-1.25,0-2.67.2-2.67,1.42a1,1,0,0,0,1.08,1.09,1.48,1.48,0,0,0,1.59-1.41Z"/><path class="cls-21" d="M348.33,470.41h1.15v9.24h-1.15Z"/><path class="cls-21" d="M352.67,471.58a.71.71,0,1,1-1.41,0,.69.69,0,0,1,.71-.71A.67.67,0,0,1,352.67,471.58Zm-1.27,8.07v-6.3h1.14v6.3Z"/><path class="cls-21" d="M359.87,470.41V478c0,.56,0,1.2.06,1.63h-1l0-1.1h0a2.33,2.33,0,0,1-2.14,1.24c-1.52,0-2.69-1.29-2.69-3.2,0-2.09,1.28-3.38,2.82-3.38a2.08,2.08,0,0,1,1.89,1h0v-3.76Zm-1.14,5.5a2,2,0,0,0-.05-.48,1.67,1.67,0,0,0-1.65-1.32c-1.19,0-1.89,1-1.89,2.43s.63,2.33,1.86,2.33a1.72,1.72,0,0,0,1.68-1.37,1.94,1.94,0,0,0,.05-.49Z"/><path class="cls-21" d="M365.26,479.65l-.09-.8h0a2.34,2.34,0,0,1-1.93.94,1.79,1.79,0,0,1-1.92-1.81c0-1.52,1.35-2.35,3.78-2.34v-.13a1.3,1.3,0,0,0-1.43-1.46,3.24,3.24,0,0,0-1.64.47l-.26-.75a3.91,3.91,0,0,1,2.07-.56c1.93,0,2.39,1.31,2.39,2.57v2.36a8.7,8.7,0,0,0,.11,1.51Zm-.17-3.22c-1.25,0-2.67.2-2.67,1.42a1,1,0,0,0,1.08,1.09,1.56,1.56,0,0,0,1.52-1.05,1.21,1.21,0,0,0,.07-.36Z"/><path class="cls-21" d="M369.36,471.55v1.8H371v.87h-1.64v3.4c0,.78.23,1.22.86,1.22a2.58,2.58,0,0,0,.67-.08l.05.86a2.81,2.81,0,0,1-1,.16,1.55,1.55,0,0,1-1.23-.49,2.27,2.27,0,0,1-.44-1.63v-3.44h-1v-.87h1v-1.51Z"/><path class="cls-21" d="M373.56,471.58a.67.67,0,0,1-.72.71.68.68,0,0,1-.69-.71.69.69,0,0,1,.71-.71A.67.67,0,0,1,373.56,471.58Zm-1.27,8.07v-6.3h1.14v6.3Z"/><path class="cls-21" d="M381,476.45a3.08,3.08,0,0,1-3.14,3.34,3,3,0,0,1-3-3.24,3.07,3.07,0,0,1,3.12-3.34A3,3,0,0,1,381,476.45Zm-5,.06c0,1.38.8,2.42,1.91,2.42s1.92-1,1.92-2.44c0-1.07-.54-2.42-1.89-2.42S376,475.32,376,476.51Z"/><path class="cls-21" d="M382.47,475.06c0-.65,0-1.19-.05-1.71h1l.07,1h0a2.31,2.31,0,0,1,2.08-1.18c.87,0,2.22.52,2.22,2.68v3.76h-1.14V476c0-1-.38-1.86-1.46-1.86a1.63,1.63,0,0,0-1.53,1.17,1.69,1.69,0,0,0-.08.53v3.79h-1.14Z"/><path class="cls-21" d="M400,470.41V478c0,.56,0,1.2.05,1.63h-1l-.05-1.1h0a2.34,2.34,0,0,1-2.15,1.24c-1.52,0-2.69-1.29-2.69-3.2,0-2.09,1.29-3.38,2.82-3.38a2.08,2.08,0,0,1,1.9,1h0v-3.76Zm-1.14,5.5a2,2,0,0,0-.05-.48,1.68,1.68,0,0,0-1.65-1.32c-1.19,0-1.89,1-1.89,2.43s.62,2.33,1.86,2.33a1.72,1.72,0,0,0,1.68-1.37,1.94,1.94,0,0,0,.05-.49Z"/><path class="cls-21" d="M402.56,476.71a2,2,0,0,0,2.16,2.18,4.2,4.2,0,0,0,1.74-.32l.19.81a4.91,4.91,0,0,1-2.09.4,2.92,2.92,0,0,1-3.09-3.18c0-1.9,1.11-3.39,2.95-3.39a2.67,2.67,0,0,1,2.6,3,5.05,5.05,0,0,1,0,.54Zm3.35-.82a1.63,1.63,0,0,0-1.58-1.86,1.89,1.89,0,0,0-1.76,1.86Z"/><path class="cls-21" d="M413.34,470.41h1.14v9.24h-1.14Z"/><path class="cls-21" d="M419.89,479.65l-.09-.8h0a2.33,2.33,0,0,1-1.92.94,1.8,1.8,0,0,1-1.93-1.81c0-1.52,1.35-2.35,3.78-2.34v-.13a1.3,1.3,0,0,0-1.42-1.46,3.18,3.18,0,0,0-1.64.47l-.26-.75a3.87,3.87,0,0,1,2.06-.56c1.93,0,2.4,1.31,2.4,2.57v2.36a8.76,8.76,0,0,0,.1,1.51Zm-.17-3.22c-1.25,0-2.66.2-2.66,1.42a1,1,0,0,0,1.08,1.09,1.47,1.47,0,0,0,1.58-1.41Z"/><path class="cls-21" d="M427.58,475.41c0-.81,0-1.46-.06-2.06h1l.05,1.08h0a2.47,2.47,0,0,1,2.24-1.22c1.52,0,2.66,1.29,2.66,3.2,0,2.26-1.38,3.38-2.86,3.38a2.23,2.23,0,0,1-1.94-1h0v3.42h-1.13Zm1.13,1.67a2.26,2.26,0,0,0,.05.47,1.77,1.77,0,0,0,1.72,1.34c1.21,0,1.91-1,1.91-2.43,0-1.26-.67-2.34-1.87-2.34a1.82,1.82,0,0,0-1.73,1.42,1.77,1.77,0,0,0-.08.46Z"/><path class="cls-21" d="M438.46,479.65l-.09-.8h0a2.34,2.34,0,0,1-1.93.94,1.79,1.79,0,0,1-1.92-1.81c0-1.52,1.35-2.35,3.78-2.34v-.13a1.3,1.3,0,0,0-1.43-1.46,3.24,3.24,0,0,0-1.64.47l-.25-.75a3.87,3.87,0,0,1,2.06-.56c1.93,0,2.39,1.31,2.39,2.57v2.36a8.7,8.7,0,0,0,.11,1.51Zm-.17-3.22c-1.25,0-2.67.2-2.67,1.42a1,1,0,0,0,1.08,1.09,1.56,1.56,0,0,0,1.52-1.05,1.21,1.21,0,0,0,.07-.36Z"/><path class="cls-21" d="M441.24,475.32c0-.74,0-1.38-.05-2h1l0,1.24h0a1.89,1.89,0,0,1,1.74-1.38,1.15,1.15,0,0,1,.33,0v1.08a1.56,1.56,0,0,0-.39,0,1.61,1.61,0,0,0-1.54,1.47,4,4,0,0,0-.05.53v3.36h-1.13Z"/><path class="cls-21" d="M447.18,471.55v1.8h1.64v.87h-1.64v3.4c0,.78.22,1.22.86,1.22a2.44,2.44,0,0,0,.66-.08l.05.86a2.79,2.79,0,0,1-1,.16,1.59,1.59,0,0,1-1.24-.49,2.32,2.32,0,0,1-.44-1.63v-3.44h-1v-.87h1v-1.51Z"/><path class="cls-21" d="M451.38,471.58a.68.68,0,0,1-.73.71.69.69,0,0,1-.69-.71.7.7,0,0,1,.72-.71A.67.67,0,0,1,451.38,471.58Zm-1.27,8.07v-6.3h1.14v6.3Z"/><path class="cls-21" d="M453.78,476.71a2,2,0,0,0,2.16,2.18,4.22,4.22,0,0,0,1.75-.32l.19.81a4.91,4.91,0,0,1-2.09.4,2.93,2.93,0,0,1-3.1-3.18c0-1.9,1.12-3.39,2.95-3.39,2.06,0,2.6,1.81,2.6,3a3.31,3.31,0,0,1,0,.54Zm3.36-.82a1.63,1.63,0,0,0-1.59-1.86,1.89,1.89,0,0,0-1.75,1.86Z"/><path class="cls-21" d="M464.57,470.41h1.14v9.24h-1.14Z"/><path class="cls-21" d="M473.33,476.45a3.08,3.08,0,0,1-3.14,3.34,3,3,0,0,1-3-3.24,3.08,3.08,0,0,1,3.12-3.34A3,3,0,0,1,473.33,476.45Zm-5,.06c0,1.38.8,2.42,1.92,2.42s1.91-1,1.91-2.44c0-1.07-.54-2.42-1.89-2.42S468.33,475.32,468.33,476.51Z"/><path class="cls-21" d="M480.19,473.35c0,.46-.05,1-.05,1.73v3.66a3.62,3.62,0,0,1-.9,2.87,3.33,3.33,0,0,1-2.29.75,4,4,0,0,1-2.09-.52l.29-.87a3.51,3.51,0,0,0,1.84.49c1.17,0,2-.61,2-2.19v-.7h0a2.24,2.24,0,0,1-2,1.05,2.81,2.81,0,0,1-2.67-3.07c0-2.13,1.39-3.34,2.83-3.34a2.09,2.09,0,0,1,2,1.09h0l.05-.95ZM479,475.84a1.69,1.69,0,0,0-1.67-1.73c-1.09,0-1.87.92-1.87,2.38,0,1.23.63,2.26,1.86,2.26a1.68,1.68,0,0,0,1.59-1.17A2.2,2.2,0,0,0,479,477Z"/><path class="cls-21" d="M483.23,471.58a.67.67,0,0,1-.72.71.71.71,0,0,1,0-1.42A.67.67,0,0,1,483.23,471.58ZM482,479.65v-6.3h1.14v6.3Z"/><path class="cls-21" d="M489.29,478.67h0a2.25,2.25,0,0,1-2.06,1.12c-1.47,0-2.66-1.28-2.66-3.19,0-2.35,1.52-3.39,2.84-3.39a2.07,2.07,0,0,1,1.94,1.09h0l0-.95h1.07c0,.54,0,1.08,0,1.73v7.14h-1.15Zm0-2.77a1.86,1.86,0,0,0-.05-.48,1.68,1.68,0,0,0-1.64-1.3c-1.18,0-1.9,1-1.9,2.42,0,1.25.6,2.34,1.86,2.34a1.71,1.71,0,0,0,1.64-1.25,2,2,0,0,0,.09-.55Z"/><path class="cls-21" d="M497.59,477.93c0,.65,0,1.22.05,1.72h-1l-.06-1h0a2.38,2.38,0,0,1-2.08,1.17c-1,0-2.17-.55-2.17-2.76v-3.68h1.15v3.49c0,1.19.36,2,1.4,2a1.65,1.65,0,0,0,1.51-1,1.82,1.82,0,0,0,.1-.59v-3.86h1.15Z"/><path class="cls-21" d="M500.12,476.71a2,2,0,0,0,2.16,2.18,4.17,4.17,0,0,0,1.74-.32l.2.81a5,5,0,0,1-2.1.4A2.93,2.93,0,0,1,499,476.6c0-1.9,1.12-3.39,3-3.39a2.67,2.67,0,0,1,2.6,3,5.05,5.05,0,0,1,0,.54Zm3.35-.82a1.62,1.62,0,0,0-1.58-1.86,1.89,1.89,0,0,0-1.76,1.86Z"/><path class="cls-21" d="M505.1,481.24a18.71,18.71,0,0,0,.78-3.1l1.27-.13a16.3,16.3,0,0,1-1.23,3.16Z"/><path class="cls-21" d="M516.92,479.65l-.09-.8h0a2.33,2.33,0,0,1-1.92.94,1.8,1.8,0,0,1-1.93-1.81c0-1.52,1.35-2.35,3.79-2.34v-.13a1.31,1.31,0,0,0-1.44-1.46,3.17,3.17,0,0,0-1.63.47l-.26-.75a3.87,3.87,0,0,1,2.06-.56c1.93,0,2.4,1.31,2.4,2.57v2.36a8.76,8.76,0,0,0,.1,1.51Zm-.17-3.22c-1.25,0-2.66.2-2.66,1.42a1,1,0,0,0,1.07,1.09,1.59,1.59,0,0,0,1.53-1.05,1.18,1.18,0,0,0,.06-.36Z"/><path class="cls-21" d="M519.7,470.41h1.15v9.24H519.7Z"/><path class="cls-21" d="M522.77,470.41h1.14v9.24h-1.14Z"/><path class="cls-21" d="M531.1,477.93c0,.65,0,1.22,0,1.72h-1l-.06-1h0a2.38,2.38,0,0,1-2.08,1.17c-1,0-2.17-.55-2.17-2.76v-3.68h1.14v3.49c0,1.19.37,2,1.41,2a1.66,1.66,0,0,0,1.51-1,1.82,1.82,0,0,0,.1-.59v-3.86h1.14Z"/><path class="cls-21" d="M535.65,475.71v.84h-3.21v-.84Z"/><path class="cls-21" d="M285.79,490.66c0-.65,0-1.19-.05-1.71h1l.05,1h0a2.17,2.17,0,0,1,2-1.16,1.87,1.87,0,0,1,1.78,1.26h0a2.75,2.75,0,0,1,.71-.82,2.16,2.16,0,0,1,1.39-.44c.83,0,2.06.55,2.06,2.73v3.7h-1.12v-3.56c0-1.21-.44-1.93-1.36-1.93a1.47,1.47,0,0,0-1.35,1,1.89,1.89,0,0,0-.09.57v3.88h-1.12v-3.76c0-1-.44-1.73-1.31-1.73a1.56,1.56,0,0,0-1.42,1.14,1.46,1.46,0,0,0-.09.56v3.79h-1.12Z"/><path class="cls-21" d="M300.12,495.24l-.1-.79h0a2.35,2.35,0,0,1-1.93.94,1.79,1.79,0,0,1-1.92-1.81c0-1.52,1.35-2.35,3.78-2.34v-.13a1.29,1.29,0,0,0-1.43-1.45,3.2,3.2,0,0,0-1.64.46l-.26-.75a3.91,3.91,0,0,1,2.07-.56c1.92,0,2.39,1.31,2.39,2.57v2.36a8.5,8.5,0,0,0,.11,1.5ZM300,492c-1.25,0-2.67.2-2.67,1.42a1,1,0,0,0,1.08,1.09,1.56,1.56,0,0,0,1.52-1.05,1.21,1.21,0,0,0,.07-.36Z"/><path class="cls-21" d="M308.32,489c0,.46-.05,1-.05,1.73v3.65a3.63,3.63,0,0,1-.9,2.88,3.35,3.35,0,0,1-2.29.75,4,4,0,0,1-2.09-.52l.28-.87a3.57,3.57,0,0,0,1.85.5c1.17,0,2-.62,2-2.2v-.7h0a2.24,2.24,0,0,1-2,1.05,2.82,2.82,0,0,1-2.68-3.07c0-2.13,1.39-3.34,2.84-3.34a2.09,2.09,0,0,1,2,1.09h0l.05-.95Zm-1.18,2.49a1.69,1.69,0,0,0-1.67-1.73c-1.09,0-1.87.92-1.87,2.38,0,1.23.62,2.26,1.86,2.26a1.66,1.66,0,0,0,1.58-1.17,1.9,1.9,0,0,0,.1-.61Z"/><path class="cls-21" d="M310.8,492.31a2,2,0,0,0,2.16,2.18,4.17,4.17,0,0,0,1.74-.32l.2.82a5.2,5.2,0,0,1-2.1.38,2.92,2.92,0,0,1-3.09-3.17c0-1.9,1.12-3.39,3-3.39a2.67,2.67,0,0,1,2.6,3,5.05,5.05,0,0,1,0,.54Zm3.36-.82a1.63,1.63,0,0,0-1.59-1.86,1.89,1.89,0,0,0-1.75,1.86Z"/><path class="cls-21" d="M319.47,486.48h1.13v7.82h3.75v.94h-4.88Z"/><path class="cls-21" d="M330.15,491.14h-3.41v3.16h3.79v.94h-4.92v-8.76h4.73v.95h-3.6v2.77h3.41Z"/><path class="cls-21" d="M332,486.6a16.83,16.83,0,0,1,2.41-.18,5,5,0,0,1,3.55,1.09,4,4,0,0,1,1.23,3.15,4.61,4.61,0,0,1-1.26,3.4,5.39,5.39,0,0,1-3.87,1.26,19.82,19.82,0,0,1-2.06-.1Zm1.14,7.75a7.38,7.38,0,0,0,1.14.06A3.36,3.36,0,0,0,338,490.7c0-2.07-1.16-3.38-3.55-3.38a6.81,6.81,0,0,0-1.32.11Z"/><path class="cls-21" d="M339.44,496.84a17.77,17.77,0,0,0,.78-3.1l1.27-.13a16.3,16.3,0,0,1-1.23,3.16Z"/><path class="cls-21" d="M351.06,486v7.61c0,.56,0,1.2.05,1.62h-1l-.06-1.09h0a2.32,2.32,0,0,1-2.15,1.24c-1.52,0-2.69-1.29-2.69-3.2,0-2.09,1.29-3.38,2.82-3.38a2.08,2.08,0,0,1,1.9,1h0V486Zm-1.14,5.5a2.7,2.7,0,0,0-.05-.48,1.68,1.68,0,0,0-1.66-1.32c-1.18,0-1.88,1-1.88,2.43s.62,2.32,1.86,2.32a1.72,1.72,0,0,0,1.68-1.36,2.54,2.54,0,0,0,.05-.49Z"/><path class="cls-21" d="M358.65,492.05a3.08,3.08,0,0,1-3.13,3.34,3,3,0,0,1-3-3.24,3.07,3.07,0,0,1,3.12-3.34A3,3,0,0,1,358.65,492.05Zm-5,.06c0,1.38.79,2.42,1.91,2.42s1.91-1,1.91-2.44c0-1.07-.53-2.42-1.88-2.42S353.66,490.92,353.66,492.11Z"/><path class="cls-21" d="M364.58,495a4.17,4.17,0,0,1-1.81.36,3,3,0,0,1-3.13-3.21,3.2,3.2,0,0,1,3.38-3.34,3.75,3.75,0,0,1,1.59.33l-.26.88a2.74,2.74,0,0,0-1.33-.3,2.18,2.18,0,0,0-2.22,2.38,2.15,2.15,0,0,0,2.18,2.35,3.2,3.2,0,0,0,1.41-.31Z"/><path class="cls-21" d="M371.19,493.53c0,.65,0,1.22.05,1.71h-1l-.06-1h0a2.36,2.36,0,0,1-2.08,1.17c-1,0-2.17-.55-2.17-2.76V489H367v3.49c0,1.19.37,2,1.41,2a1.65,1.65,0,0,0,1.51-1,1.82,1.82,0,0,0,.1-.59V489h1.15Z"/><path class="cls-21" d="M373.08,490.66c0-.65,0-1.19-.05-1.71h1l.05,1h0a2.17,2.17,0,0,1,2-1.16,1.85,1.85,0,0,1,1.78,1.26h0a2.59,2.59,0,0,1,.7-.82,2.16,2.16,0,0,1,1.39-.44c.83,0,2.07.55,2.07,2.73v3.7H381v-3.56c0-1.21-.44-1.93-1.37-1.93a1.48,1.48,0,0,0-1.35,1,1.89,1.89,0,0,0-.09.57v3.88H377v-3.76c0-1-.44-1.73-1.31-1.73a1.56,1.56,0,0,0-1.42,1.14,1.69,1.69,0,0,0-.09.56v3.79h-1.12Z"/><path class="cls-21" d="M384.56,492.31a2,2,0,0,0,2.16,2.18,4.17,4.17,0,0,0,1.74-.32l.2.82a5.2,5.2,0,0,1-2.1.38,2.92,2.92,0,0,1-3.09-3.17c0-1.9,1.12-3.39,2.95-3.39,2.06,0,2.6,1.81,2.6,3a5.05,5.05,0,0,1,0,.54Zm3.36-.82a1.63,1.63,0,0,0-1.59-1.86,1.91,1.91,0,0,0-1.76,1.86Z"/><path class="cls-21" d="M390.44,490.66c0-.65,0-1.19-.05-1.71h1l.06,1h0a2.32,2.32,0,0,1,2.08-1.18c.87,0,2.22.52,2.22,2.68v3.75h-1.14v-3.62c0-1-.38-1.86-1.46-1.86a1.63,1.63,0,0,0-1.53,1.17,1.69,1.69,0,0,0-.08.53v3.78h-1.14Z"/><path class="cls-21" d="M399,487.15V489h1.64v.87H399v3.4c0,.78.22,1.22.86,1.22a2.44,2.44,0,0,0,.66-.08l.05.86a2.82,2.82,0,0,1-1,.15,1.55,1.55,0,0,1-1.24-.48,2.32,2.32,0,0,1-.44-1.63v-3.44h-1V489h1v-1.5Z"/><path class="cls-21" d="M404.66,490.92c0-.75,0-1.38-.05-2h1l0,1.24h.05a1.87,1.87,0,0,1,1.74-1.38,1.15,1.15,0,0,1,.33,0v1.08a1.56,1.56,0,0,0-.39,0,1.61,1.61,0,0,0-1.54,1.47,4,4,0,0,0,0,.53v3.35h-1.13Z"/><path class="cls-21" d="M409.42,492.31a2,2,0,0,0,2.15,2.18,4.22,4.22,0,0,0,1.75-.32l.19.82a5.14,5.14,0,0,1-2.09.38,2.92,2.92,0,0,1-3.1-3.17c0-1.9,1.12-3.39,3-3.39a2.67,2.67,0,0,1,2.6,3,5.05,5.05,0,0,1,0,.54Zm3.35-.82a1.63,1.63,0,0,0-1.58-1.86,1.9,1.9,0,0,0-1.76,1.86Z"/><path class="cls-21" d="M415.14,494.08a3,3,0,0,0,1.51.45c.83,0,1.22-.42,1.22-.94s-.33-.84-1.17-1.15c-1.13-.41-1.67-1-1.67-1.78a1.94,1.94,0,0,1,2.17-1.85,3.12,3.12,0,0,1,1.55.39l-.29.83a2.47,2.47,0,0,0-1.28-.36c-.68,0-1.06.39-1.06.86s.38.75,1.2,1.06c1.09.42,1.65,1,1.65,1.9,0,1.11-.86,1.88-2.35,1.88a3.59,3.59,0,0,1-1.77-.42Z"/><path class="cls-21" d="M420.28,494.08a3,3,0,0,0,1.51.45c.83,0,1.22-.42,1.22-.94s-.32-.84-1.17-1.15c-1.13-.41-1.66-1-1.66-1.78a1.94,1.94,0,0,1,2.17-1.85,3.12,3.12,0,0,1,1.55.39l-.29.83a2.47,2.47,0,0,0-1.28-.36c-.68,0-1.06.39-1.06.86s.38.75,1.2,1.06c1.09.42,1.65,1,1.65,1.9,0,1.11-.86,1.88-2.35,1.88A3.59,3.59,0,0,1,420,495Z"/><path class="cls-21" d="M431.28,492.05a3.08,3.08,0,0,1-3.13,3.34,3,3,0,0,1-3-3.24,3.07,3.07,0,0,1,3.12-3.34A3,3,0,0,1,431.28,492.05Zm-5,.06c0,1.38.79,2.42,1.91,2.42s1.91-1,1.91-2.44c0-1.07-.53-2.42-1.88-2.42S426.29,490.92,426.29,492.11Z"/><path class="cls-21" d="M438,493.53c0,.65,0,1.22.05,1.71h-1l-.07-1h0a2.36,2.36,0,0,1-2.08,1.17c-1,0-2.17-.55-2.17-2.76V489h1.14v3.49c0,1.19.36,2,1.4,2a1.65,1.65,0,0,0,1.51-1,1.59,1.59,0,0,0,.11-.59V489H438Z"/><path class="cls-21" d="M439.89,490.92c0-.75,0-1.38-.05-2h1l0,1.24h.05a1.87,1.87,0,0,1,1.74-1.38,1.15,1.15,0,0,1,.33,0v1.08a1.56,1.56,0,0,0-.39,0,1.61,1.61,0,0,0-1.54,1.47,4,4,0,0,0-.05.53v3.35h-1.13Z"/><path class="cls-21" d="M448.49,495a4.11,4.11,0,0,1-1.8.36,3,3,0,0,1-3.14-3.21,3.2,3.2,0,0,1,3.38-3.34,3.75,3.75,0,0,1,1.59.33l-.26.88a2.71,2.71,0,0,0-1.33-.3,2.18,2.18,0,0,0-2.22,2.38,2.16,2.16,0,0,0,2.19,2.35,3.15,3.15,0,0,0,1.4-.31Z"/><path class="cls-21" d="M450.39,492.31a2,2,0,0,0,2.16,2.18,4.17,4.17,0,0,0,1.74-.32l.2.82a5.14,5.14,0,0,1-2.09.38,2.92,2.92,0,0,1-3.1-3.17c0-1.9,1.12-3.39,2.95-3.39,2.06,0,2.6,1.81,2.6,3a3.31,3.31,0,0,1,0,.54Zm3.36-.82a1.63,1.63,0,0,0-1.59-1.86,1.89,1.89,0,0,0-1.75,1.86Z"/><path class="cls-21" d="M456.11,494.08a3,3,0,0,0,1.51.45c.83,0,1.22-.42,1.22-.94s-.32-.84-1.17-1.15c-1.13-.41-1.66-1-1.66-1.78a1.94,1.94,0,0,1,2.17-1.85,3.12,3.12,0,0,1,1.55.39l-.29.83a2.52,2.52,0,0,0-1.29-.36c-.67,0-1,.39-1,.86s.38.75,1.2,1.06c1.09.42,1.65,1,1.65,1.9,0,1.11-.86,1.88-2.36,1.88a3.58,3.58,0,0,1-1.76-.42Z"/><path class="cls-21" d="M464.06,493.87a4,4,0,0,0,2,.57c1.16,0,1.84-.61,1.84-1.5s-.47-1.28-1.65-1.74c-1.43-.5-2.32-1.25-2.32-2.48s1.13-2.38,2.84-2.38a4,4,0,0,1,1.93.43l-.31.92a3.58,3.58,0,0,0-1.66-.41c-1.2,0-1.65.71-1.65,1.31,0,.82.53,1.22,1.74,1.69,1.48.57,2.23,1.29,2.23,2.57s-1,2.52-3.06,2.52a4.56,4.56,0,0,1-2.24-.55Z"/><path class="cls-21" d="M472,492.49l-.91,2.75H470l3-8.76h1.36l3,8.76h-1.21l-.93-2.75Zm2.87-.88-.86-2.53c-.19-.57-.32-1.09-.45-1.6h0c-.13.52-.27,1.06-.44,1.59l-.86,2.54Z"/><path class="cls-21" d="M483.11,491.14h-3.4v3.16h3.79v.94h-4.92v-8.76h4.73v.95h-3.6v2.77h3.4Z"/><text class="cls-5" transform="translate(284.84 540.94)"><tspan class="cls-22">-</tspan><tspan class="cls-18" x="3.34" y="0">T</tspan><tspan x="8.88" y="0">est et </tspan><tspan class="cls-12" x="41.17" y="0">v</tspan><tspan x="47.37" y="0">alid</tspan><tspan class="cls-7" x="67.08" y="0">a</tspan><tspan x="73.29" y="0">tion LED </tspan><tspan class="cls-23" x="121.69" y="0">R</tspan><tspan x="128.89" y="0">VB </tspan><tspan class="cls-24" x="145.95" y="0">a</tspan><tspan class="cls-11" x="152.11" y="0">v</tspan><tspan x="158.23" y="0">ec</tspan><tspan class="cls-17" x="170.57" y="0"> </tspan><tspan x="172.79" y="0">T </tspan><tspan x="0" y="15.6">-</tspan><tspan class="cls-25" x="3.99" y="15.6"> </tspan><tspan class="cls-26" x="6.28" y="15.6">V</tspan><tspan x="13.1" y="15.6">alid</tspan><tspan class="cls-7" x="32.81" y="15.6">a</tspan><tspan x="39.03" y="15.6">tion de l</tspan><tspan class="cls-24" x="83.15" y="15.6">&apos;</tspan><tspan x="85.49" y="15.6">ensemble</tspan></text><text class="cls-5" transform="translate(284.84 594.14)">-<tspan class="cls-20" x="3.99" y="0">S</tspan><tspan x="10.48" y="0">chéma de l</tspan><tspan class="cls-24" x="69.56" y="0">&apos;</tspan><tspan x="71.9" y="0">ensemble </tspan><tspan x="0" y="15.6">- </tspan><tspan class="cls-9" x="6.75" y="15.6">D</tspan><tspan x="15.46" y="15.6">émo w</tspan><tspan class="cls-27" x="52.27" y="15.6">r</tspan><tspan x="56.46" y="15.6">apping</tspan><tspan x="0" y="31.2">- </tspan><tspan class="cls-28" x="6.75" y="31.2">A</tspan><tspan x="14.66" y="31.2">ide au </tspan><tspan class="cls-11" x="50.49" y="31.2">r</tspan><tspan x="54.61" y="31.2">outage</tspan></text><text class="cls-5" transform="translate(284.84 655.14)">-<tspan class="cls-17" x="3.99" y="0"> </tspan><tspan class="cls-18" x="6.21" y="0">T</tspan><tspan x="11.75" y="0">est et </tspan><tspan class="cls-12" x="44.04" y="0">v</tspan><tspan x="50.24" y="0">alid</tspan><tspan class="cls-7" x="69.95" y="0">a</tspan><tspan x="76.17" y="0">tion final </tspan><tspan x="0" y="15.6">- </tspan><tspan class="cls-9" x="6.75" y="15.6">R</tspan><tspan x="13.79" y="15.6">emise du </tspan><tspan class="cls-11" x="65.86" y="15.6">r</tspan><tspan x="69.98" y="15.6">outage et du </tspan><tspan class="cls-27" x="142.2" y="15.6">r</tspan><tspan class="cls-29" x="146.39" y="15.6">appo</tspan><tspan class="cls-30" x="174.59" y="15.6">r</tspan><tspan x="179.15" y="15.6">t </tspan><tspan x="0" y="31.2" xml:space="preserve"> - </tspan><tspan class="cls-9" x="9.5" y="31.2">R</tspan><tspan x="16.55" y="31.2">e</tspan><tspan class="cls-13" x="23.06" y="31.2">t</tspan><tspan x="27.29" y="31.2">our sur </tspan><tspan class="cls-28" x="67.91" y="31.2">e</tspan><tspan x="74.38" y="31.2">xpé</tspan><tspan class="cls-31" x="94.31" y="31.2">r</tspan><tspan x="98.62" y="31.2">ien</tspan><tspan class="cls-16" x="115.39" y="31.2">c</tspan><tspan x="121.13" y="31.2">e</tspan></text><text class="cls-32" transform="translate(119.93 100.84)">1</text><text class="cls-32" transform="translate(119.93 162.12)">2</text><text class="cls-32" transform="translate(119.93 235.12)">3</text><text class="cls-32" transform="translate(119.93 308.12)">4</text><text class="cls-32" transform="translate(119.93 369.12)">5</text><text class="cls-32" transform="translate(119.93 431.12)">6</text><text class="cls-32" transform="translate(119.93 492.12)">7</text><text class="cls-32" transform="translate(119.93 553.12)">8</text><text class="cls-32" transform="translate(119.93 613.12)">9</text><text class="cls-32" transform="translate(110.96 673.12)">10</text></g></g></svg>