<?xml version="1.0" encoding="utf-8"?>
<!-- Generator: Adobe Illustrator 25.2.0, SVG Export Plug-In . SVG Version: 6.00 Build 0)  -->
<svg version="1.1" id="Bold" xmlns="http://www.w3.org/2000/svg" xmlns:xlink="http://www.w3.org/1999/xlink" x="0px" y="0px"
	 viewBox="0 0 512 512" style="enable-background:new 0 0 512 512;" xml:space="preserve">
<style type="text/css">
	.st0{fill:#FFFFFF;}
</style>
<path class="st0" d="M32.2,129.7c8.5,0,16.6,3.4,22.6,9.4l163.7,163.7c20.8,20.8,54.6,20.8,75.4,0c0,0,0,0,0,0l163.4-163.5
	c12.3-12.7,32.5-13.1,45.2-0.8s13.1,32.5,0.8,45.2c-0.3,0.3-0.5,0.5-0.8,0.8L339.2,348c-45.8,45.8-120.1,45.8-165.9,0L9.6,184.3
	c-12.5-12.5-12.5-32.8,0-45.3C15.6,133.1,23.7,129.7,32.2,129.7z"/>
</svg>
