<svg xmlns="http://www.w3.org/2000/svg" viewBox="0 0 179.74 142.6"><defs><style>.cls-1{fill:#fff;}</style></defs><g id="Calque_2" data-name="Calque 2"><g id="Calque_1-2" data-name="Calque 1"><path class="cls-1" d="M0,27.42A28.93,28.93,0,0,1,2,23c2.33-3.49,5.77-5,9.91-5,6.31,0,12.63,0,19,0a2.49,2.49,0,0,0,2.49-1.42c2.08-3.6,4.27-7.12,6.39-10.69A11.51,11.51,0,0,1,50.34,0Q70.62,0,90.89,0a11.48,11.48,0,0,1,10.45,5.91c2.15,3.55,4.33,7.09,6.4,10.68a2.61,2.61,0,0,0,2.62,1.5q21.08-.07,42.13,0c11.8,0,21.33,7.72,23.55,19.12a19.26,19.26,0,0,1,0,7.45c-1.05,5-5.64,8.26-11,8.32-4.8,0-9.6,0-14.39,0a3.36,3.36,0,0,0-.51.15c.18.48.32,1,.53,1.39q5,10.62,10.1,21.2a5.42,5.42,0,0,0,1.64,2c3.45,2.51,6.94,5,10.44,7.41a15.15,15.15,0,0,1,6.88,13.26c0,5.79,0,11.59,0,17.38,0,7.22-4.79,12-12,12-1.69,0-3.74-.56-5,.19s-1.45,2.82-2.18,4.29a18.64,18.64,0,0,1-18.1,10.31,18.84,18.84,0,0,1-16.36-13.16c-.15-.5-.29-1-.45-1.56H62.56a19.17,19.17,0,0,1-5.86,10,18.54,18.54,0,0,1-30.16-8.52,1.85,1.85,0,0,0-2.17-1.58c-4.1.07-8.19,0-12.29,0q-9.21,0-11.82-8.94a2.68,2.68,0,0,0-.26-.46ZM117.9,53c-1.65,0-3.05-.07-4.44,0a7.26,7.26,0,0,0-6.6,5.41,14.11,14.11,0,0,0-.28,3.31q0,19.5,0,39c0,.53,0,1,0,1.58-.11,2.52-1.65,4.16-3.83,4.12s-3.68-1.74-3.68-4.28q0-20.88,0-41.78a14.49,14.49,0,0,1,4-10c3.31-3.59,7.51-4.94,12.3-4.93q24.58.06,49.16,0c3.24,0,4.62-1.4,4.49-4.6a15.94,15.94,0,0,0-15.14-15.15c-4.27-.14-8.55-.07-12.82-.07H12.49c-3.63,0-5,1.23-5,4.51q0,42.84,0,85.68c0,3.11,1.39,4.44,4.55,4.46,4.09,0,8.19,0,12.29,0a1.93,1.93,0,0,0,2.3-1.65,18.52,18.52,0,0,1,35.52,0,1.84,1.84,0,0,0,2.14,1.61q29.85-.08,59.69,0c1.31,0,1.89-.3,2.29-1.66a18.56,18.56,0,0,1,16.3-13.18c7.64-.59,15.41,3.52,18.08,10.71,1.47,3.94,3.58,4.42,7,4.16s4.68-1.39,4.68-4.74c0-5.62-.07-11.24,0-16.86A8.56,8.56,0,0,0,168.26,91c-3.29-2.23-6.46-4.64-9.77-6.85a5.86,5.86,0,0,0-3-1c-8.66-.08-17.32,0-26-.06-6.72,0-11.47-4.79-11.56-11.5,0-2.51,0-5,0-7.55Zm-18-35c-1.93-3.18-3.56-6.16-5.51-8.89A4.65,4.65,0,0,0,91.1,7.52Q70.58,7.37,50,7.5a3.9,3.9,0,0,0-2.81,1.08c-2.1,3-3.94,6.12-6,9.42Zm25.48,35V70.86c0,3.49,1.26,4.77,4.74,4.78q10.26,0,20.52,0c.49,0,1-.07,1.53-.11a3.29,3.29,0,0,0-.13-.65q-5-10.51-10-21a1.76,1.76,0,0,0-1.28-.86C135.71,53,130.68,53,125.37,53Zm18.51,59.87a11.15,11.15,0,1,0,11.23,11.1A11.22,11.22,0,0,0,143.88,112.84ZM33.26,124.05a11.11,11.11,0,1,0,11.07-11.21A11.12,11.12,0,0,0,33.26,124.05Z"/><path class="cls-1" d="M49.68,42.85c5.55,0,11.11,0,16.66,0,6.25,0,10.47,4.21,10.5,10.44q.06,9.74,0,19.47c0,6.21-4.27,10.43-10.52,10.44q-16.57,0-33.15,0c-6.19,0-10.4-4.14-10.45-10.29q-.07-9.91,0-19.82c.05-6.1,4.2-10.2,10.3-10.24C38.57,42.82,44.12,42.85,49.68,42.85Zm.08,32.79c5.38,0,10.76,0,16.14,0,2.69,0,3.38-.66,3.38-3.27q0-9.37,0-18.76c0-2.5-.77-3.27-3.24-3.27q-16.31,0-32.62,0c-2.44,0-3.22.81-3.22,3.3q0,9.38,0,18.76c0,2.47.76,3.23,3.25,3.24C38.89,75.65,44.33,75.64,49.76,75.64Z"/></g></g></svg>