<svg xmlns="http://www.w3.org/2000/svg" viewBox="0 0 167.27 167.26"><defs><style>.cls-1{fill:#fff;}</style></defs><g id="Calque_2" data-name="Calque 2"><g id="Calque_1-2" data-name="Calque 1"><path class="cls-1" d="M167.27,132.63v2.61c-1.09,1.33-2.07,2.75-3.27,4-6.44,6.5-12.92,12.94-19.39,19.41-2.31,2.31-4.59,4.65-6.93,6.92s-5.09,2.28-7.51,0c-.31-.3-.61-.62-.92-.92q-22.05-22.07-44.1-44.12a27.59,27.59,0,0,1-1.75-2.23A16.46,16.46,0,0,1,82.1,120Q63.16,139,44.16,157.83A8.93,8.93,0,0,1,40,160.07c-11.21,2.42-22.45,4.68-33.69,7C2.34,167.86-.55,165,.23,161c2.2-11.14,4.43-22.28,6.56-33.44a8.93,8.93,0,0,1,2.62-4.91Q28.3,103.85,47.1,85c.41-.41.79-.84,1.44-1.53A14.31,14.31,0,0,1,47,82.35Q24.61,60,2.22,37.55c-2.94-2.94-3-5.51,0-8.43q13-13,26-26C29.35,2,30.74,1.05,32,0h2.61a38.46,38.46,0,0,1,3.51,2.8Q60.41,25,82.61,47.23c.38.38.77.73,1.34,1.25.48-.57.86-1.1,1.32-1.57q19.64-19.62,39.27-39.23A25.23,25.23,0,0,1,136.19.82c1.21-.31,2.43-.55,3.64-.82h5.23a5,5,0,0,0,.9.29,25.11,25.11,0,0,1,20.52,18.48c.29,1.14.53,2.3.79,3.44v5.23a1.31,1.31,0,0,0-.22.42c-.75,6.29-3.82,11.28-8.26,15.67C145.87,56.31,133.06,69.18,120.18,82a10.65,10.65,0,0,1-1.89,1.17c.95.81,1.39,1.14,1.77,1.52q22,22,44.07,44.08A48.92,48.92,0,0,1,167.27,132.63ZM23.44,44.8c1.06-1.12,2-2.21,3.08-3.25,2.37-2.37,5.29-2.54,7.38-.46s1.88,5-.48,7.37c-1.07,1-2.29,1.94-3.35,2.84l9.37,9.38c.34-.32.73-.68,1.11-1.06,2.39-2.38,4.75-4.8,7.17-7.15a4.89,4.89,0,0,1,8.34,2.75,5,5,0,0,1-1.76,4.52c-2.66,2.64-5.31,5.29-8,8L54.58,76c.23.23.48.43.83.74,1.13-1.15,2.21-2.28,3.33-3.38,2.19-2.14,5.15-2.26,7.15-.31s2,5-.28,7.26c-1.1,1.1-2.34,2.08-3.4,3l7.28,7.32c.32-.31.72-.67,1.09-1,2.43-2.42,4.82-4.88,7.3-7.25a4.84,4.84,0,0,1,8,5,7.77,7.77,0,0,1-1.71,2.52c-2.57,2.65-5.2,5.22-7.73,7.74l7.24,7.21c1-1,2-2.16,3.06-3.23,2.27-2.27,5.2-2.42,7.25-.42s2,5.07-.39,7.37c-1.07,1.06-2.28,2-3.45,3l9,9a7,7,0,0,0,.62.48c2.71-2.72,5.38-5.42,8.08-8.08a4.91,4.91,0,1,1,6.94,6.91c-2.36,2.41-4.77,4.77-7.15,7.17a11,11,0,0,0-.78.9l9.21,9.23c.56-.66,1.16-1.44,1.84-2.13,3.35-3.39,6-3.88,8.41-1.56s1.87,5.14-1.45,8.41a23.38,23.38,0,0,1-2.2,1.72l11.21,11.22L154.78,134,33.24,12.41,12.11,33.56,22.24,43.69C22.58,44,23,44.35,23.44,44.8Zm123.89-4c2.21-2.12,4.54-4.11,6.56-6.37a14.52,14.52,0,0,0,1.64-16.75A15.27,15.27,0,0,0,140.15,10c-6.4.94-9.67,6-13.8,9.78ZM55.28,90.94l-36,36.21L26,133.93l36-36.24Zm14,14.13L33.38,141.18l6.74,6.75,35.94-36.15Zm42.53-28.81,28-28.11c-2.22-2.24-4.53-4.57-6.79-6.87L105,69.47ZM97.76,62l28-28.1L119,27.21l-28,28.15ZM14.89,137.16l-3.71,18.9,18.61-3.82Z"/></g></g></svg>