<svg xmlns="http://www.w3.org/2000/svg" viewBox="0 0 126.25 171.1"><defs><style>.cls-1{fill:#fff;}</style></defs><g id="Calque_2" data-name="Calque 2"><g id="Calque_1-2" data-name="Calque 1"><path class="cls-1" d="M81,100.72a3.75,3.75,0,0,1-3.84-1.84c-1-1.5-2.13-2.94-3.2-4.41a.71.71,0,0,1,.27-1.18,4.23,4.23,0,0,1,1.56-.52c8.56-.63,16.58-3.39,24.53-6.37l2.52-.94a2.18,2.18,0,0,1,2.17.32c1.51,1.15,3,2.28,4.52,3.45a3.07,3.07,0,0,1,.77,1c.31.61,0,1-.54,1.36-2.67,1.6-5.32,3.23-8,4.8-1.75,1-3.52,2-5.33,2.92a6.15,6.15,0,0,1-2.27.59C89.84,100.19,85.53,100.44,81,100.72Z"/><path class="cls-1" d="M123.18,59.25c-.68,0-.84-.24-.89-.85-.14-1.94-.33-3.88-.49-5.83a176,176,0,0,0-2.88-21.45A44.51,44.51,0,0,0,115,19.06a6.13,6.13,0,0,0-1.61-2.2,107.89,107.89,0,0,0-9.69-6.38A86.67,86.67,0,0,0,66.64.11,77,77,0,0,0,45.84,2,81,81,0,0,0,14.2,15.77a9.07,9.07,0,0,0-3,3.59A54.61,54.61,0,0,0,7.75,30.67,240.94,240.94,0,0,0,4,58.46c-.06.64-.28.77-.87.78A2.87,2.87,0,0,0,0,62.55c.09,2.4.2,4.79.28,7.19.32,8.56.67,17.13.9,25.69a3.12,3.12,0,0,0,3.45,3.28c1.18-.11,1.16,0,1.43,1.08,2.56,10.49,5.08,21,7.73,31.47,1.14,4.52,2.48,9,5.15,12.93,2.18,3.2,4.37,6.4,6.73,9.47a71.4,71.4,0,0,0,11.7,12.06,17.61,17.61,0,0,0,8.83,4.13c2.51.32,5,.73,7.53.91a116.53,116.53,0,0,0,22.33-.42c3.51-.42,6.92-1.18,9.84-3.32,1.38-1,2.78-2,4.07-3.14a85.27,85.27,0,0,0,14.19-16.6c2.4-3.58,4.64-7.25,5.75-11.47q3.45-13,6.79-26.07c.93-3.62,1.69-7.29,2.55-11h2.88a2.89,2.89,0,0,0,3-2.87c.06-1.52.12-3,.17-4.58q.5-14.39,1-28.77A2.81,2.81,0,0,0,123.18,59.25ZM112.86,90.63c-.53,2.31-1.11,4.61-1.68,6.91a23.44,23.44,0,0,1-2.52,6c-3.09,5.34-6,10.77-9,16.18-1.54,2.83-3,5.67-4.49,8.54a8.52,8.52,0,0,0-.7,2.56,44,44,0,0,0,.24,15.65,16.61,16.61,0,0,1,.49,6,3.81,3.81,0,0,1-2.37,3.37c-.23.08-.4.33-.58.53-1.48,1.64-3,3.28-4.42,5a.79.79,0,0,1-1.08.22q-3.9-1.72-7.83-3.39a3.21,3.21,0,0,0-1.22-.25q-13.44,0-26.88,0a4.42,4.42,0,0,0-1.68.34c-2.61,1.06-5.2,2.16-7.79,3.29a.82.82,0,0,1-1.14-.26c-1.37-1.63-2.77-3.24-4.17-4.85a2,2,0,0,0-.63-.59,3.78,3.78,0,0,1-2.37-3.77,20.77,20.77,0,0,1,.38-4.86,46.73,46.73,0,0,0,.17-17.68,3.45,3.45,0,0,0-.49-1.23c-4.94-8-9.76-16-14.91-23.87-2.38-3.62-3.3-7.57-4.16-11.65A6.72,6.72,0,0,1,14.42,89c1.54-4.2,3-8.43,4.47-12.66a3.67,3.67,0,0,0,.21-1.39q-.45-15.14-.94-30.28c-.14-4.48-.28-9-.46-13.43a2.65,2.65,0,0,1,.57-1.82,39,39,0,0,1,8.22-8.6,32.26,32.26,0,0,1,6.38-3.4c3.8-1.56,7.69-2.88,11.73-4.36.23,1.59.42,2.94.61,4.29C46.46,26.14,47.69,35,49,43.77c.5,3.52,1,7,1.62,10.55a1.32,1.32,0,0,0,.63.87,13.4,13.4,0,0,0,5.39,1.38c5.08,0,10.17.1,15.25-.07,1.57-.06,3.11-.87,4.65-1.4.22-.07.41-.47.46-.74,1.54-7.84,2.51-15.77,3.56-23.68q1.1-8.31,2.25-16.61c0-.26.09-.51.15-.8a1.79,1.79,0,0,1,.32,0,76.16,76.16,0,0,1,14.61,5.29,19.6,19.6,0,0,1,5.62,4.91c1.76,2,3.5,4.07,5.2,6.16a2.45,2.45,0,0,1,.5,1.48c-.12,5.69-.31,11.38-.46,17.08-.2,7.38-.38,14.76-.58,22.14a7,7,0,0,1,0,.79,15,15,0,0,0,.9,7c1.41,3.69,2.61,7.47,3.86,11.21A2.42,2.42,0,0,1,112.86,90.63Z"/><path class="cls-1" d="M51.13,92.88a5.42,5.42,0,0,0-.7-.14c-3.34-.55-6.72-.95-10-1.68-5.77-1.27-11.25-3.5-16.78-5.54a2.38,2.38,0,0,0-2.45.33c-1.46,1.13-2.93,2.23-4.39,3.36a2.7,2.7,0,0,0-.68.75,1,1,0,0,0,.4,1.58c2.37,1.44,4.72,2.9,7.11,4.28,1.73,1,3.56,1.84,5.26,2.88a7.23,7.23,0,0,0,3.29,1.21l13,.8A3.74,3.74,0,0,0,49,99c.91-1.35,1.88-2.67,2.86-4S52.67,93.3,51.13,92.88Z"/></g></g></svg>