<svg xmlns="http://www.w3.org/2000/svg" viewBox="0 0 291 193"><defs><style>.cls-1{fill:#fff;}</style></defs><g id="Calque_2" data-name="Calque 2"><g id="Calque_1-2" data-name="Calque 1"><path class="cls-1" d="M20,0H271a20,20,0,0,1,20,20V173a20,20,0,0,1-20,20H18.5A18.5,18.5,0,0,1,0,174.5V20A20,20,0,0,1,20,0Z"/><circle cx="246" cy="32.5" r="17"/><rect x="14.73" y="15.36" width="192.27" height="162.27" rx="20"/><path class="cls-1" d="M56.16,158.25H46.23c.33-15.81,10.66-27.78,25.3-29.41,11.56-1.28,22.63,1.59,33.69,4.88,11.72,3.48,23.47,6.89,35.31,9.77a20.87,20.87,0,0,0,11.52-.33c3.77-1.33,8.71-3.8,10.08-7.31,3-7.72,7.75-7.5,13.37-6.63-.3,16.45-11.37,28.29-27.26,29.35-11.43.77-22.3-2.39-33.2-5.59s-21.74-6.35-32.68-9.17a32.42,32.42,0,0,0-9.84-.55C64,143.73,58.84,149.29,56.16,158.25Z"/><path class="cls-1" d="M56.16,109.75H46.23C46.56,93.94,56.89,82,71.53,80.34c11.56-1.28,22.63,1.59,33.69,4.88,11.72,3.48,23.47,6.89,35.31,9.77a20.87,20.87,0,0,0,11.52-.33c3.77-1.33,8.71-3.8,10.08-7.31,3-7.72,7.75-7.5,13.37-6.63-.3,16.45-11.37,28.29-27.26,29.35-11.43.77-22.3-2.39-33.2-5.59S93.3,98.13,82.36,95.31a32.42,32.42,0,0,0-9.84-.55C64,95.23,58.84,100.79,56.16,109.75Z"/><path class="cls-1" d="M56.16,61.25H46.23c.33-15.81,10.66-27.78,25.3-29.41,11.56-1.28,22.63,1.59,33.69,4.88,11.72,3.48,23.47,6.89,35.31,9.77a20.87,20.87,0,0,0,11.52-.33c3.77-1.33,8.71-3.8,10.08-7.31,3-7.72,7.75-7.5,13.37-6.63-.3,16.45-11.37,28.29-27.26,29.35-11.43.77-22.3-2.39-33.2-5.59S93.3,49.63,82.36,46.81a32.42,32.42,0,0,0-9.84-.55C64,46.73,58.84,52.29,56.16,61.25Z"/></g></g></svg>