<svg xmlns="http://www.w3.org/2000/svg" viewBox="0 0 167.1 167.53"><defs><style>.cls-1{fill:#fff;stroke:#fff;stroke-miterlimit:10;stroke-width:2px;}</style></defs><g id="Calque_2" data-name="Calque 2"><g id="Calque_1-2" data-name="Calque 1"><path class="cls-1" d="M17.5,89.34c-4.34,0-8.51,0-12.68,0-1.43,0-2.77-.06-3.52-1.56s.05-2.61.91-3.74c5.1-6.79,10.2-13.57,15.25-20.4a4.2,4.2,0,0,1,3.76-1.9c5.85.07,11.69,0,17.54,0h2c-1.29-2.22-2.42-4.18-3.55-6.15-1-1.78-2.08-3.57-3.09-5.36A8.27,8.27,0,0,0,27,45.91c-16.35-1-25.85-19.34-17.34-33.37,1.94-3.2,4.12-3.16,6,.09,2.23,3.88,4.41,7.79,6.72,11.61a4.06,4.06,0,0,0,2,1.26,4.85,4.85,0,0,0,1.71.1c1.22,0,3,.43,3.56-.2a21.34,21.34,0,0,0,2.74-5.31c.14-.33-.26-.94-.5-1.37-2.28-4-4.58-7.95-6.86-11.93C23.39,4,24.53,2,27.81,1.86A22,22,0,0,1,49.54,30.14a11.88,11.88,0,0,0,1.24,10.45c4,6.57,7.73,13.29,11.52,20a2.05,2.05,0,0,0,2.15,1.24c1.7-.1,3.42,0,5.33,0v-7c0-3.31.73-4,4-4.08h1.49v-1.5c0-7.86,0-15.73,0-23.6a3.79,3.79,0,0,0-.92-2.21c-1.07-1.27-2.32-2.38-3.5-3.56a2.89,2.89,0,0,1-.5-3.89c2.66-4.42,5.24-8.9,8-13.24a3.86,3.86,0,0,1,2.78-1.54c7.91,0,6-1.12,10,5.35,1.86,3,3.67,6.09,5.48,9.15,1.11,1.88,1.15,3.09-.61,4.38-3.64,2.65-4.49,6.08-4.25,10.4.34,6.07.09,12.17.09,18.26v2h1.84c2.79,0,3.65.9,3.66,3.75v7.27c2,0,3.83,0,5.69,0a1.74,1.74,0,0,0,1.11-.85q6.65-11.46,13.22-23c1.45-2.52,1.27-5.1.39-7.8a21.82,21.82,0,0,1,10.61-26.4C136.38-.4,144.4.12,151.63,5.57S161.79,18.69,160,27.64s-7.43,14.75-16.34,16.89a11.6,11.6,0,0,0-8.3,6.22c-1.89,3.64-4.08,7.14-6.26,10.91.71.05,1.19.11,1.67.11,5,0,10.09,0,15.13,0a4.11,4.11,0,0,1,3.65,1.79c5.15,7,10.36,13.89,15.56,20.82.81,1.07,1.34,2.15.65,3.48s-1.87,1.52-3.21,1.51c-4.23,0-8.47,0-12.84,0v10.88a25.58,25.58,0,0,1,2.81,2c2.24,2.14,4.41,4.35,6.58,6.56,1.66,1.7,1.65,3,0,4.76-1.85,1.89-3.7,3.77-5.62,5.58a1.42,1.42,0,0,0-.32,1.94c.36.74.57,1.38,1.66,1.34,2.69-.09,5.39,0,8.08,0,2.16,0,3.19,1,3.21,3.14q0,5.09,0,10.17c0,2.22-1,3.2-3.31,3.21-2.64,0-5.28.09-7.91,0-1.2,0-1.37.68-1.77,1.45s-.17,1.32.44,1.91q2.85,2.75,5.61,5.58c1.59,1.63,1.6,3,0,4.63q-3.5,3.57-7.05,7.07c-1.63,1.6-3,1.59-4.63,0s-3.4-3.42-5.1-5.12c-.7-.69-1.18-1.53-2.56-.93s-1.26,1.38-1.24,2.43q0,3.62,0,7.23c0,2.35-1,3.33-3.37,3.34q-4.9,0-9.8,0c-2.35,0-3.32-1-3.33-3.38,0-2.64-.07-5.29,0-7.92,0-1.08-.57-1.32-1.33-1.67a1.41,1.41,0,0,0-1.93.3c-1.77,1.88-3.61,3.69-5.45,5.51s-3.4,2-4.93,0c-2.52-3.34-5.66-4-9.66-4-25.74.17-51.48.09-77.22.09-3.3,0-4.07-.76-4.07-4V89.34Zm63.14,60.58V73c-3.71,5-7.25,9.61-10.7,14.33a4.5,4.5,0,0,1-4,2c-13.64-.05-27.27,0-40.91,0H23.1v60.58Zm5.77-77v77H100c.74-1,1.29-1.81,2-2.54,1.62-1.7,3.3-3.35,5-5a1.65,1.65,0,0,0,.55-2.19,1.84,1.84,0,0,0-2.06-1.28c-2.52.07-5,0-7.56,0-2.36,0-3.33-1-3.35-3.36q0-4.91,0-9.81c0-2.37,1-3.34,3.35-3.36,2.52,0,5,0,7.56,0a1.84,1.84,0,0,0,2.06-1.28A1.65,1.65,0,0,0,107,119c-1.86-1.8-3.68-3.62-5.49-5.47-1.58-1.62-1.57-3,0-4.62q3.5-3.57,7-7.07c1.62-1.59,3-1.59,4.62,0,1.85,1.81,3.66,3.65,5.46,5.49.58.59,1,1.11,2,.6s1.5-.75,1.45-2c-.11-2.64-.06-5.28,0-7.92,0-2.14,1-3.15,3.18-3.17q5,0,10,0c2.36,0,3.33,1,3.35,3.36,0,2.7,0,5.39,0,8.09a2.55,2.55,0,0,0,2.56,1.8c1.09-.41,2.94-3.12,2.94-4.32q0-6.45,0-12.91c0-.49-.06-1-.1-1.54h-2c-13.58,0-27.16,0-40.74,0a4.5,4.5,0,0,1-4-2C93.71,82.62,90.16,78,86.41,73Zm46.66,27.54h-5.5v7.85c0,2.52-.45,3.07-2.77,3.87a29.63,29.63,0,0,0-3.62,1.55c-2.1,1-2.89,1-4.57-.7l-5.71-5.69-3.9,3.89,5.5,5.48c1.94,1.94,2,2.59.81,5a26.76,26.76,0,0,0-1.39,3.32c-.85,2.49-1.36,2.9-3.94,2.9h-7.79v5.52c2.89,0,5.64,0,8.39,0a3,3,0,0,1,3.18,2.32,31.8,31.8,0,0,0,1.6,4c1.12,2.28,1.06,3-.8,4.84s-3.71,3.68-5.39,5.35l3.75,4.17c2-2.08,4-4.08,6-6.08a3,3,0,0,1,3.89-.61,27.36,27.36,0,0,0,3.76,1.66c2.65.93,3,1.36,3,4.22v7.63h5.5v-8c0-2.41.46-3,2.69-3.75a31,31,0,0,0,3.63-1.53c2.21-1.1,2.94-1,4.7.72l5.44,5.49c1.46-1.33,2.76-2.51,4.14-3.78-2-2-3.93-3.85-5.83-5.76-1.57-1.58-1.64-2.41-.64-4.44a34.14,34.14,0,0,0,1.6-3.79c.75-2.15,1.34-2.64,3.6-2.65h8.08v-5.52c-2.84,0-5.59,0-8.33,0a3.06,3.06,0,0,1-3.29-2.4,31.33,31.33,0,0,0-1.7-4.12c-1-2-.88-2.8.73-4.42,1.9-1.91,3.81-3.81,5.46-5.44l-3.7-4.17c-2,2-3.93,3.94-5.85,5.91a3.07,3.07,0,0,1-4,.63,26.16,26.16,0,0,0-4.26-1.8,3.13,3.13,0,0,1-2.45-3.43C133.11,106,133.07,103.32,133.07,100.49ZM9.35,83.7a7.62,7.62,0,0,0,.78.12q27.24,0,54.49,0a2.72,2.72,0,0,0,1.77-1c2.32-3,4.56-6,6.83-9.07l4.67-6.23a2.91,2.91,0,0,0-.65-.19q-27.33,0-54.66,0a2,2,0,0,0-1.43.67C17.24,73.13,13.37,78.32,9.35,83.7Zm148.26.13a3.77,3.77,0,0,0-.28-.66c-3.74-5-7.46-10-11.26-15a2.86,2.86,0,0,0-2-.85q-26.73-.08-53.45,0c-.42,0-.83.08-1.44.14C93,72.58,96.74,77.51,100.4,82.5a2.94,2.94,0,0,0,2.68,1.36c15.19,0,30.37,0,45.56,0ZM110,61.78c4,0,7.67-.05,11.33,0a2.1,2.1,0,0,0,2.13-1.28c2.39-4.24,4.93-8.4,7.25-12.68a16.07,16.07,0,0,1,11.54-8.58,16.31,16.31,0,0,0,12.48-19.41,16.46,16.46,0,1,0-31.75,8.49,15.23,15.23,0,0,1-1.49,13.5c-1.39,2.24-2.64,4.57-4,6.85Zm-53.37,0c-.37-.69-.61-1.19-.88-1.67-3.12-5.42-6.08-10.93-9.4-16.22a17.48,17.48,0,0,1-2-15.56,16.2,16.2,0,0,0-10.42-20c-.48-.17-1-.24-1.91-.46,2.07,3.59,3.88,6.77,5.73,9.93A3.43,3.43,0,0,1,38,21.35c-1.4,2.76-2.75,5.55-4.12,8.32a2.93,2.93,0,0,1-3.05,1.78c-1.89-.13-3.78-.21-5.66-.37-6.34-.5-5,.3-8.08-4.95-1-1.79-2-3.59-3.08-5.37-.33-.57-.69-1.12-1.11-1.81-3.52,9.71,3.91,20.74,14.27,21.43A14.05,14.05,0,0,1,39.2,48c2.39,4.25,4.84,8.46,7.31,12.66.28.48.85,1.08,1.3,1.09C50.66,61.82,53.51,61.77,56.59,61.77Zm34.55-44.4c-2.07-3.46-4-6.67-5.9-9.85a2,2,0,0,0-3.34-.1c-2,3.22-3.88,6.48-6,10.08.93.79,1.86,1.65,2.84,2.43a5.62,5.62,0,0,1,2.13,4.95c-.1,8,0,16,0,23.94v1.8h5.42a3.61,3.61,0,0,0,.07-.48c0-8.66,0-17.33,0-26a4.46,4.46,0,0,1,1.53-3.65C88.92,19.52,90,18.46,91.14,17.37ZM75.36,61.66h16.3V56.35H75.36Z"/><path class="cls-1" d="M50.69,122.42c2.52,0,5.05,0,7.57,0,2,0,3.25,1.08,3.25,2.75s-1.24,2.74-3.26,2.75H42.78c-2,0-3.25-1.08-3.25-2.76s1.22-2.73,3.25-2.74C45.42,122.4,48.06,122.42,50.69,122.42Z"/><path class="cls-1" d="M50.52,136.2c-2.58,0-5.16,0-7.74,0-2,0-3.25-1.08-3.25-2.76s1.22-2.74,3.25-2.74q7.74,0,15.48,0c2,0,3.25,1.08,3.25,2.75s-1.24,2.73-3.26,2.75C55.68,136.22,53.1,136.2,50.52,136.2Z"/><path class="cls-1" d="M50.69,139c2.52,0,5.05,0,7.57,0,2,0,3.25,1.09,3.25,2.76s-1.24,2.74-3.26,2.75H42.78c-2,0-3.25-1.08-3.25-2.76S40.75,139,42.78,139C45.42,138.94,48.06,139,50.69,139Z"/><path class="cls-1" d="M32.75,122.43c.46,0,.92,0,1.38,0a2.74,2.74,0,0,1-.07,5.47,20.33,20.33,0,0,1-2.92,0,2.74,2.74,0,0,1,.07-5.47C31.72,122.39,32.24,122.43,32.75,122.43Z"/><path class="cls-1" d="M32.59,136.2c-.28,0-.57,0-.86,0-2,0-3.23-1.12-3.21-2.79s1.24-2.69,3.29-2.72c.69,0,1.38,0,2.06,0a2.76,2.76,0,0,1,2.88,2.78,2.8,2.8,0,0,1-3,2.72C33.4,136.22,33,136.2,32.59,136.2Z"/><path class="cls-1" d="M32.55,144.45a13.34,13.34,0,0,1-1.55,0,2.69,2.69,0,0,1-2.47-2.81A2.62,2.62,0,0,1,31,139a18,18,0,0,1,2.75,0,2.76,2.76,0,1,1,0,5.5h-1.2Z"/><path class="cls-1" d="M144.07,130.73a13.76,13.76,0,1,1-13.76-13.82A13.79,13.79,0,0,1,144.07,130.73Zm-5.5,0a8.25,8.25,0,1,0-8.14,8.27A8.29,8.29,0,0,0,138.57,130.68Z"/><path class="cls-1" d="M127.57,23.13a21.88,21.88,0,0,0,0-2.92c-.36-2.55.75-4.07,3-5.16s4.09-2.29,6.1-3.5a3.34,3.34,0,0,1,3.71-.08c2.46,1.46,4.95,2.88,7.43,4.3a3.25,3.25,0,0,1,1.8,3.08c0,2.87,0,5.74,0,8.61a3.26,3.26,0,0,1-1.74,3.11c-2.49,1.42-5,2.84-7.43,4.3a3.34,3.34,0,0,1-3.71,0c-2.41-1.44-4.83-2.85-7.28-4.22a3.36,3.36,0,0,1-1.87-3.38C127.62,25.89,127.57,24.51,127.57,23.13Zm16.68,0c-.19-1.13,0-2.68-.62-3.23-1.45-1.24-3.32-2.74-5-2.71s-3.56,1.61-5.2,2.73c-.4.27-.35,1.36-.34,2.06,0,1.52-.38,3.54.42,4.43,1.25,1.4,3.35,2.77,5.1,2.8s3.58-1.46,5-2.71C144.28,25.89,144.06,24.28,144.25,23.12Z"/></g></g></svg>