<svg xmlns="http://www.w3.org/2000/svg" viewBox="0 0 179.47 179.21"><defs><style>.cls-1{fill:#fff;stroke:#fff;stroke-miterlimit:10;stroke-width:6px;}</style></defs><g id="Calque_2" data-name="Calque 2"><g id="Calque_1-2" data-name="Calque 1"><path class="cls-1" d="M127.63,91.84c.57-.65,1.3-1.6,2.15-2.43a2.44,2.44,0,0,1,3.66,0,.8.8,0,0,1,.13.13c11.66,11.69,23.65,23.08,34.87,35.17,8.29,8.92,10.07,19.88,5.75,31.33s-12.76,18-24.78,19.84c-10.07,1.5-18.92-1.51-26.17-8.63C112,156.17,101,145,89.84,133.84c-1.71-1.72-1.7-2.82,0-4.56.71-.71,1.48-1.35,2.13-1.94L81.75,117.09c-.68.76-1.38,1.66-2.19,2.44a2.56,2.56,0,0,1-4,.06Q71.26,115.35,67,111c-1.35-1.38-1.29-2.6.14-4q5-5,10-10a11.51,11.51,0,0,1,1.93-1.21c-1.77-1.66-3.06-2.8-4.28-4Q55.88,72.85,36.94,54a6.42,6.42,0,0,0-2.88-1.52c-2.59-.65-5.28-1-7.86-1.65a5.66,5.66,0,0,1-3-1.95C16.71,39.6,10.29,30.28,3.85,21c-1.22-1.77-1.14-2.74.34-4.24C8.4,12.51,12.64,8.31,16.83,4.07a2.73,2.73,0,0,1,4-.4c9.5,6.59,19,13.14,28.49,19.77a4.27,4.27,0,0,1,1.45,2.3c.7,2.83,1.15,5.72,1.81,8.56a5,5,0,0,0,1.17,2.3q20.45,20.52,41,41c.29.29.61.54,1,.9,3.69-3.72,7.33-7.41,11-11.08,1.89-1.89,2.89-1.89,4.8,0q3.87,3.84,7.71,7.71c1.87,1.89,1.86,2.92,0,4.82-.63.63-1.33,1.19-1.85,1.65Zm4.05,2.67-1.35,1.29c-.43.41-.83.86-1.27,1.25a2.56,2.56,0,0,1-3.94,0q-6.56-6.48-13-13c-1.37-1.38-1.33-2.6.07-4,.77-.79,1.65-1.49,2.43-2.18l-5.31-5.38L72.49,109.1l5,5.2c.09,0,.17,0,.2,0,.78-.73,1.54-1.49,2.33-2.21,1.38-1.27,2.64-1.35,3.94-.08q6.61,6.54,13.15,13.15c1.28,1.3,1.23,2.58-.08,3.91a31.58,31.58,0,0,1-2.45,2.06,5.37,5.37,0,0,0,.3.76c11,10.95,21.77,22.07,33,32.77,6,5.76,13.72,7.61,21.92,6C160,168.53,167,162.41,170,152.44s.57-18.73-6.61-26.17c-4.09-4.25-8.33-8.36-12.49-12.54ZM8.79,19.42q9,12.92,17.94,25.83a3.09,3.09,0,0,0,1.77,1c2.55.57,5.16.92,7.69,1.58a7.75,7.75,0,0,1,3.36,1.78q20.55,20.42,41,41a6.26,6.26,0,0,1,.91,1.5L91.93,81.65c-.4-.34-.94-.72-1.4-1.18-12-12-23.88-24.18-36.13-36-4.36-4.19-7.55-8.57-7.86-14.72a2.35,2.35,0,0,0-.19-1,7.63,7.63,0,0,0-1.7-2.49c-8-5.62-16-11.16-24.08-16.71-.43-.3-.88-.55-1.2-.74Z"/><path class="cls-1" d="M116.67,106.19c1-1,2.06-2.14,3-3.14l38.17,38.17-3.2,3Z"/><path class="cls-1" d="M144.23,154.85l-3,2.71-38-38,3-2.77Z"/></g></g></svg>