<svg xmlns="http://www.w3.org/2000/svg" viewBox="0 0 133.16 161.04"><defs><style>.cls-1{fill:#fff;}</style></defs><g id="Calque_2" data-name="Calque 2"><g id="Calque_1-2" data-name="Calque 1"><path class="cls-1" d="M0,80.46Q0,49.35,0,18.25C0,10,4.53,3.37,11.89,1A20.51,20.51,0,0,1,18.16.05Q66.6,0,115,0c10.6,0,18.1,7.49,18.11,18.1q.06,62.37,0,124.75c0,10.69-7.52,18.14-18.23,18.15q-48.25,0-96.53,0C7.47,161,0,153.56,0,142.67Q0,111.56,0,80.46Zm126.09.23q0-31.18,0-62.37c0-7-4.31-11.33-11.36-11.33H18.36C11.42,7,7.07,11.3,7.07,18.22q0,62.3,0,124.58c0,6.93,4.35,11.25,11.28,11.25h96.52a13.34,13.34,0,0,0,2.45-.16c5.44-1,8.76-5.14,8.76-11Q126.11,111.8,126.09,80.69Z"/><path class="cls-1" d="M84.18,35c7.71,0,15.43,0,23.14,0a9.07,9.07,0,0,1,2.27.22,3.42,3.42,0,0,1,0,6.58,8.59,8.59,0,0,1-2.27.24H60.93c-3.19,0-4.89-1.26-4.85-3.59S57.76,35,60.87,35Z"/><path class="cls-1" d="M84.09,126.07H61a12,12,0,0,1-1.8-.08,3.47,3.47,0,0,1,.07-6.91,11.19,11.19,0,0,1,1.64-.07H107.3c3.09,0,4.77,1.22,4.8,3.48s-1.69,3.58-4.87,3.58Z"/><path class="cls-1" d="M84.05,56H60.75a10.69,10.69,0,0,1-2-.1,3.46,3.46,0,0,1-2.71-3.45,3.53,3.53,0,0,1,2.85-3.35A6.4,6.4,0,0,1,60.24,49H108c2.56,0,4.21,1.49,4.09,3.65-.1,2-1.6,3.3-3.91,3.31C102.1,56,96,56,90,56Z"/><path class="cls-1" d="M84,77c-7.87,0-15.75,0-23.63,0a5.87,5.87,0,0,1-2.91-.78,3,3,0,0,1-1.25-3.47A3.42,3.42,0,0,1,59,70.07a7.11,7.11,0,0,1,1.31,0h47.59c2.67,0,4.35,1.51,4.18,3.72-.16,2-1.63,3.24-4,3.24Q96,77,84,77Z"/><path class="cls-1" d="M84.15,84.05c8,0,16,0,23.95,0,2.27,0,3.6,1,3.93,2.92a3.46,3.46,0,0,1-3,4,9.51,9.51,0,0,1-1.31,0H60.48c-.33,0-.66,0-1,0a3.52,3.52,0,0,1-3.41-3.5,3.4,3.4,0,0,1,3.45-3.43c3.34-.07,6.67,0,10,0Z"/><path class="cls-1" d="M84.06,105.06c8,0,16.08,0,24.12,0,2.65,0,4.31,1.85,3.82,4.13a3.38,3.38,0,0,1-3,2.8,10.39,10.39,0,0,1-1.48,0q-23.38,0-46.76,0a11.16,11.16,0,0,1-1.64,0,3.53,3.53,0,0,1-3-3.55,3.44,3.44,0,0,1,3.2-3.34c.55,0,1.1,0,1.64,0Z"/><path class="cls-1" d="M32,47.47c1-1.13,2.17-2.45,3.38-3.69,2.34-2.38,4.71-4.72,7.08-7.08,2-2,4-2.25,5.59-.69s1.38,3.64-.7,5.72L35.12,53.91c-.27.27-.54.55-.82.81-1.85,1.71-3.7,1.73-5.49,0q-3.28-3.21-6.5-6.49c-1.6-1.64-1.67-3.65-.26-5.12s3.54-1.41,5.23.21c1.38,1.32,2.74,2.67,4.1,4A4.76,4.76,0,0,0,32,47.47Z"/><path class="cls-1" d="M31.52,82.65c3.8-3.81,7.36-7.43,11-11a5.93,5.93,0,0,1,2.43-1.53,3.11,3.11,0,0,1,3.61,1.62,3.26,3.26,0,0,1-.41,4.09c-1.09,1.22-2.29,2.34-3.45,3.5q-5,5-10.08,10.08c-2.18,2.16-3.89,2.17-6.05,0s-4-4-6-6c-1.79-1.82-1.95-3.81-.46-5.35s3.57-1.42,5.46.45C28.84,79.85,30.11,81.2,31.52,82.65Z"/><path class="cls-1" d="M31.45,117.71c3.84-3.84,7.45-7.5,11.12-11.09a5.53,5.53,0,0,1,2.31-1.44,3.15,3.15,0,0,1,3.65,1.55,3.36,3.36,0,0,1-.48,4.23c-1.92,2-3.93,4-5.9,5.94q-3.82,3.84-7.66,7.66c-2,2-3.84,2-5.83,0s-4.2-4.16-6.27-6.27c-1.69-1.72-1.79-3.77-.3-5.24s3.53-1.38,5.23.3C28.72,114.76,30,116.22,31.45,117.71Z"/></g></g></svg>